<?xml version="1.0" encoding="utf-8"?>
<!-- Generator: Adobe Illustrator 27.5.0, SVG Export Plug-In . SVG Version: 6.00 Build 0)  -->
<svg version="1.1" xmlns="http://www.w3.org/2000/svg" xmlns:xlink="http://www.w3.org/1999/xlink" x="0px" y="0px"
	 viewBox="0 0 500 500" style="enable-background:new 0 0 500 500;" xml:space="preserve">
<g id="BACKGROUND">
	<g>
		<g>
			<g>
				<g>
					<path style="fill:#E24D73;" d="M363.909,164.18c-3.223-8.488-7.233-16.358-9.861-24.961
						c-10.56,1.121-26.659-4.327-27.603-6.399c-2.121-4.654,5.217-5.599,8.265-4.998c5.516,1.088,15.361,6.807,18.802,9.556
						c-0.279-1.005-0.544-2.018-0.779-3.048c-0.515-2.259-1.038-4.521-1.56-6.782c-3.594,0.099-11.236,0.697-19.902-5.994
						c-1.453-1.122-3.284-2.748-3.062-4.777c0.307-2.816,3.072-1.675,4.797-0.905c2.96,1.32,12.782,6.535,17.482,8.701
						c-1.046-4.527-2.088-9.059-3.106-13.592c-6.871-1.118-15.193-2.507-19.947-8.168c-3.109-3.703,1.737-5.2,4.704-4.603
						c5.314,1.069,10.373,4.701,14.348,8.736c-0.472-2.14-0.944-4.279-1.397-6.419c-0.081-0.382-0.154-0.767-0.233-1.15
						c-3.422-0.258-6.747-0.144-9.988-1.6c-3.192-1.434-5.376-4.209-6.714-7.373c-0.59-1.395-1.499-3.006-0.94-4.58
						c0.784-2.208,2.586-0.233,3.755,0.829c2.487,2.261,5.151,4.422,7.857,6.391c1.495,1.087,2.862,2.152,4.211,3.333
						c0.348,0.305,0.873,0.643,1.411,0.989c-0.604-3.048-1.155-6.115-1.646-9.196c-5.343-2.453-11.789-5.456-14.385-11.126
						c-1.703-3.719,2.586-3.85,4.872-2.696c3.544,1.79,6.503,5.104,8.748,8.678c-0.185-1.345-0.361-2.692-0.523-4.04
						c-5.081-4.653-11.442-10.342-12.263-17.608c-0.523-4.623,4.254-3.214,6.353-1.145c2.072,2.043,3.657,4.668,4.839,7.507
						c-0.045-0.624-0.097-1.248-0.136-1.871c-0.092-1.463-0.128-2.918-0.122-4.366c-4.847-3.358-10.716-7.45-12.29-13.516
						c-1.028-3.959,3.219-3.339,5.268-1.804c3.252,2.438,5.621,6.34,7.209,10.349c0.145-2.198,0.362-4.388,0.62-6.574
						c-3.488-3.317-7.681-7.353-8.187-12.432c-0.333-3.333,3.025-2.296,4.489-0.796c2.125,2.177,3.497,5.252,4.313,8.394
						c0.32-2.389,0.65-4.78,0.945-7.181c-0.96-1.947-1.823-4.072-2.532-5.937c-0.838-2.205-1.43-4.785-0.122-6.956
						c1.724-2.86,4.124-2.406,5.629,0.413c0.688,1.289,0.889,2.657,0.829,4.056c0.789-1.054,1.762-1.915,2.785-2.303
						c2.802-1.061,3.692,1.612,3.051,3.945c-0.713,2.597-2.811,4.601-4.394,6.681c-1.172,1.541-1.892,3.426-2.889,5.057
						c-0.211,1.586-0.424,3.17-0.626,4.752c1.518-3.643,3.848-7.316,7.013-9.385c1.755-1.147,5.258-1.431,4.21,1.75
						c-1.68,5.105-7.101,8.196-11.336,10.751l-0.253-0.072c-0.511,4.478-0.852,8.973-0.713,13.555
						c0.599-1.221,1.311-2.357,2.158-3.354c1.544-1.817,5.274-3.257,5.158,0.552c-0.15,4.892-3.331,9.148-6.542,12.783
						c0.506,4.943,1.168,9.883,1.975,14.792c0.56-4.646,2.017-9.53,4.905-12.929c1.656-1.949,5.655-3.492,5.53,0.592
						c-0.201,6.553-5.473,12.043-9.544,16.497l-0.17,0.002c0.419,2.299,0.862,4.591,1.344,6.868c0.233,1.102,0.49,2.198,0.734,3.297
						c0.631-6.423,2.412-13.163,6.063-17.816c2.09-2.664,7.197-4.724,7.112,0.919c-0.137,9.022-6.758,16.493-11.895,22.564
						c0.738,3.163,1.484,6.325,2.227,9.488c2.457-5.469,6.878-17.115,8.614-20.754c0.813-1.701,3.167-5.472,5.422-3.18
						c1.248,1.271,1.022,4.962,0.648,6.607c-0.833,3.668-7.894,15.19-13.554,22.208c0.51,2.246,1.012,4.494,1.479,6.751
						c0.173,0.836,0.363,1.661,0.562,2.479c2.928-8.417,9.739-24.454,12.827-27.603c1.57-1.602,4.545-3.82,6.748-2.147
						c2.281,1.733,0.234,5.524-0.334,7.706c-1.309,5.027-10.879,18.275-12.999,20.469c-1.641,1.698-3.712,3.107-5.416,4.687
						c0.53,1.862,1.115,3.689,1.743,5.491c4.358-5.608,13.327-18.925,16.517-22.903c1.452-1.808,5.329-5.66,7.384-2.283
						c1.137,1.872-0.171,6.227-1.082,8.09c-1.926,3.946-12.561,14.788-21.118,21.703c2.203,5.684,4.683,11.252,6.92,17.141
						C367.294,164.753,364.587,165.968,363.909,164.18z"/>
					<g>
						<g>
							<path style="fill:#0098FB;" d="M416.66,91.831c-12.434-2.698-2.623-9.531,4.443-12.734
								c5.715-2.59,20.251-7.602,12.645-16.877c-7.968-9.715-12.066,4.389-16.898,6.641c-10.798,5.033-1.179-10.918,1.058-15.122
								c3.064-5.759,9.556-17.561-0.7-17.816c-8.295-0.206-14.962,12.314-17.467,18.43c-1.785,4.361-4.832,23.982-11.574,20.752
								c-5.104-2.445-3.147-21.926-12.174-6.851c-3.671,6.13-1.623,14.78-2.707,21.322c-1.588,9.582-2.267,13.556-10.729,12.435
								c-4.385-0.581-5.317-5.834-9.965-1.489c-2.393,2.237-1.91,10.796-1.445,13.723c4.273,26.892,17.76,43.298,23.189,44.856
								c7.35,2.109,19.439-4.366,24.807-8.63c2.669-2.12,7.582-5.7,6.564-9.899c-1.143-4.712-8.413-2.912-9.11-5.676
								c-1.977-7.838,13.804-2.448,17.686-4.194c5.026-2.261,12.303-12.949,6.048-17.078c-0.642-0.424-23.766,1.373-11.781-7.885
								c6.636-5.126,16.094,4.888,21.884-4.109C438.767,88.682,421.322,92.843,416.66,91.831z"/>
						</g>
						<path style="fill:#0098FB;" d="M415.349,96.361c-5.374-1.37-10.887-2.507-16.459-2.145c3.14-5.42,6.472-10.822,8.607-16.635
							c0.602-1.639-2.031-2.312-2.628-0.683c-0.26,0.709-0.564,1.405-0.856,2.105c-0.672-1.577-0.534-4.104-0.577-5.437
							c-0.113-3.441,0.701-6.671,1.563-9.972c0.441-1.691-2.186-2.377-2.628-0.683c-1.118,4.283-1.899,8.332-1.539,12.774
							c0.177,2.184,0.402,4.545,1.926,6.144c-3.228,6.803-7.552,13.272-10.987,19.917c-2.298-2.66-4.122-5.514-5.275-8.901
							c-1.256-3.689-1.375-7.613-2.344-11.371c-0.437-1.693-3.052-0.959-2.615,0.736c1.166,4.518,1.309,9.108,3.146,13.46
							c1.384,3.28,3.399,6.059,5.776,8.679c-3.899,7.963-7.372,16.154-9.962,24.64c-0.86,2.819-1.604,5.672-2.308,8.536
							c-3.069-3.366-5.734-6.957-7.826-11.042c-1.163-2.271-2.436-4.672-3.135-7.129c-0.53-1.861-0.6-3.684-1.619-5.371
							c-0.904-1.497-3.247-0.124-2.342,1.375c1.248,2.067,1.373,4.989,2.31,7.259c0.904,2.191,1.94,4.347,3.063,6.435
							c2.298,4.272,5.297,8.01,8.633,11.509c0.049,0.051,0.104,0.066,0.155,0.108c-1.172,4.942-2.299,9.896-3.697,14.769
							c-0.147,0.154-0.27,0.342-0.331,0.604c-0.124,0.542-0.413,1.307-0.45,1.947c-2.308,9.974-4.643,19.947-6.823,29.95
							c-0.371,1.703,2.255,2.395,2.628,0.683c2.172-9.968,4.499-19.906,6.799-29.846c0.017-0.044,0.045-0.073,0.06-0.12
							c0.821-2.637,1.537-5.306,2.212-7.987c5.072,0.505,10.287-1.743,14.567-4.261c1.508-0.887,0.134-3.23-1.375-2.342
							c-3.721,2.19-8.121,4.119-12.529,3.921c1.478-6.124,2.81-12.292,4.638-18.314c0.727-2.397,1.535-4.764,2.398-7.112
							c0.098,0.05,0.18,0.112,0.302,0.141c7.069,1.698,14.42,1.695,21.38-0.501c1.663-0.525,0.937-3.142-0.737-2.615
							c-6.523,2.058-13.331,2.08-19.96,0.487c-0.014-0.003-0.024,0.002-0.038-0.001c2.702-6.954,5.91-13.712,9.351-20.329
							c0.586-1.127,1.205-2.245,1.835-3.362c0.21,0.346,0.566,0.596,1.11,0.557c5.402-0.38,10.692,0.722,15.901,2.05
							C416.358,99.421,417.045,96.794,415.349,96.361z"/>
					</g>
					<path style="fill:#452864;" d="M366.468,187.208c6.229-6.606,11.559-13.649,18.152-19.769
						c-5.619-9.011-7.746-25.873-6.294-27.627c3.261-3.94,7.315,2.249,8.105,5.253c1.43,5.437,0.582,16.791-0.389,21.087
						c0.783-0.69,1.578-1.371,2.402-2.032c1.807-1.45,3.614-2.907,5.421-4.364c-1.658-3.19-5.533-9.804-3.296-20.522
						c0.375-1.797,1.039-4.154,2.96-4.841c2.668-0.953,2.848,2.032,2.909,3.921c0.105,3.239-0.299,14.353-0.196,19.527
						c3.617-2.918,7.238-5.833,10.872-8.729c-1.994-6.67-4.378-14.763-1.36-21.512c1.974-4.414,5.437-0.707,6.195,2.223
						c1.358,5.248,0.299,11.385-1.596,16.722c1.719-1.359,3.438-2.718,5.165-4.059c0.308-0.239,0.623-0.473,0.933-0.712
						c-1.261-3.191-2.816-6.132-2.921-9.684c-0.103-3.498,1.439-6.674,3.702-9.259c0.997-1.139,2.05-2.661,3.71-2.845
						c2.329-0.259,1.339,2.225,0.893,3.74c-0.948,3.225-1.729,6.564-2.319,9.859c-0.326,1.82-0.687,3.515-1.16,5.243
						c-0.122,0.446-0.198,1.066-0.274,1.702c2.478-1.874,4.997-3.709,7.555-5.496c-0.126-5.878-0.238-12.988,3.73-17.799
						c2.602-3.156,4.593,0.646,4.553,3.206c-0.063,3.97-1.753,8.079-3.988,11.659c1.129-0.754,2.264-1.5,3.406-2.234
						c1.968-6.602,4.31-14.809,10.488-18.72c3.931-2.489,4.749,2.424,3.804,5.216c-0.934,2.756-2.603,5.328-4.641,7.631
						c0.541-0.312,1.08-0.632,1.623-0.939c1.276-0.722,2.569-1.389,3.875-2.016c0.905-5.826,2.024-12.894,6.794-16.958
						c3.113-2.653,4.41,1.438,3.923,3.952c-0.773,3.99-3.25,7.825-6.163,11.004c2.041-0.83,4.106-1.59,6.185-2.312
						c1.462-4.586,3.262-10.12,7.611-12.794c2.853-1.754,3.387,1.719,2.676,3.691c-1.031,2.862-3.198,5.439-5.669,7.545
						c2.289-0.755,4.584-1.502,6.874-2.285c1.332-1.714,2.867-3.418,4.236-4.87c1.618-1.716,3.681-3.376,6.205-3.146
						c3.326,0.303,3.965,2.66,2.086,5.245c-0.859,1.181-2.002,1.96-3.287,2.517c1.292,0.25,2.492,0.749,3.288,1.501
						c2.178,2.058,0.161,4.025-2.217,4.467c-2.647,0.492-5.367-0.521-7.929-1.036c-1.898-0.382-3.909-0.206-5.811-0.391
						c-1.519,0.502-3.037,1.002-4.549,1.512c3.94-0.225,8.262,0.268,11.505,2.212c1.798,1.078,3.583,4.105,0.263,4.552
						c-5.326,0.717-10.473-2.81-14.622-5.505l-0.046-0.258c-4.252,1.496-8.445,3.15-12.506,5.277c1.36,0.006,2.693,0.15,3.96,0.477
						c2.309,0.596,5.233,3.323,1.755,4.881c-4.467,2.001-9.684,0.997-14.356-0.305c-4.226,2.613-8.382,5.365-12.445,8.234
						c4.424-1.525,9.455-2.346,13.773-1.232c2.476,0.639,5.611,3.563,1.882,5.234c-5.983,2.68-13.224,0.334-19.009-1.384
						l-0.076-0.152c-1.886,1.38-3.755,2.78-5.592,4.207c-0.889,0.691-1.763,1.4-2.646,2.099c6.054-2.237,12.895-3.577,18.675-2.323
						c3.309,0.718,7.392,4.413,2.278,6.799c-8.177,3.815-17.789,1.121-25.494-0.851c-2.524,2.045-5.042,4.097-7.563,6.146
						c5.993-0.177,18.401-1.284,22.432-1.311c1.886-0.011,6.305,0.46,5.228,3.49c-0.598,1.678-4.017,3.086-5.661,3.467
						c-3.663,0.852-17.112-0.471-25.897-2.498c-1.797,1.439-3.601,2.872-5.428,4.278c-0.676,0.521-1.336,1.051-1.985,1.588
						c8.851-1.04,26.252-1.914,30.433-0.511c2.126,0.713,5.421,2.421,4.877,5.134c-0.563,2.809-4.868,2.622-7.079,3.063
						c-5.094,1.017-21.191-1.809-24.09-2.759c-2.244-0.735-4.416-1.983-6.581-2.827c-1.443,1.29-2.832,2.613-4.18,3.965
						c6.948,1.473,22.845,3.728,27.816,4.861c2.26,0.517,7.418,2.323,5.277,5.647c-1.188,1.84-5.676,2.565-7.751,2.559
						c-4.391-0.01-18.789-4.845-28.746-9.524c-4.152,4.463-8.078,9.125-12.401,13.709
						C367.431,190.504,365.156,188.599,366.468,187.208z"/>
				</g>
			</g>
			<g>
				<g>
					<path style="fill:#E24D73;" d="M139.07,340.204c-8.376,3.503-16.846,6.011-24.896,10.025
						c-6.455-8.433-21.487-16.362-23.64-15.621c-4.836,1.664-0.471,7.638,2.062,9.436c4.585,3.253,15.51,6.459,19.873,7.064
						c-0.922,0.489-1.839,0.994-2.747,1.532c-1.994,1.181-3.994,2.359-5.994,3.536c-2.402-2.675-7.227-8.632-18.046-10.313
						c-1.814-0.282-4.254-0.491-5.573,1.066c-1.832,2.161,0.899,3.381,2.645,4.103c2.995,1.239,13.538,4.775,18.344,6.694
						c-4.004,2.357-8.009,4.72-11.998,7.101c-5.54-4.216-12.275-9.297-19.655-8.85c-4.826,0.293-2.577,4.839-0.102,6.581
						c4.433,3.119,10.55,4.29,16.213,4.396c-1.877,1.13-3.754,2.26-5.618,3.404c-0.333,0.204-0.662,0.417-0.995,0.623
						c-2.542-2.305-4.748-4.796-8.035-6.145c-3.237-1.329-6.753-1.004-9.97,0.204c-1.418,0.532-3.213,0.982-3.97,2.47
						c-1.062,2.089,1.611,2.037,3.186,2.153c3.352,0.249,6.753,0.693,10.044,1.302c1.818,0.336,3.531,0.595,5.316,0.761
						c0.461,0.043,1.068,0.191,1.689,0.343c-2.627,1.659-5.231,3.37-7.804,5.135c-5.457-2.188-12.072-4.797-17.972-2.779
						c-3.87,1.324-1.013,4.526,1.397,5.39c3.738,1.339,8.179,1.204,12.317,0.374c-1.103,0.792-2.201,1.591-3.29,2.401
						c-6.872-0.484-15.378-1.183-21.214,3.222c-3.714,2.803,0.596,5.299,3.542,5.397c2.909,0.097,5.903-0.56,8.776-1.656
						c-0.483,0.397-0.972,0.788-1.451,1.189c-1.125,0.94-2.205,1.915-3.251,2.917c-5.771-1.205-12.78-2.647-18.264,0.386
						c-3.58,1.979-0.207,4.633,2.317,5.063c4.007,0.682,8.468-0.286,12.469-1.893c-1.495,1.618-2.934,3.283-4.343,4.974
						c-4.807-0.247-10.621-0.511-14.654,2.617c-2.647,2.052,0.416,3.775,2.512,3.805c3.042,0.043,6.217-1.078,9.058-2.648
						c-1.512,1.877-3.02,3.762-4.559,5.628c-2.073,0.643-4.209,1.48-6.05,2.249c-2.176,0.91-4.456,2.256-5.13,4.699
						c-0.888,3.219,1.093,4.648,4.174,3.799c1.408-0.388,2.54-1.184,3.513-2.19c-0.222,1.297-0.177,2.596,0.246,3.606
						c1.159,2.763,3.711,1.569,4.962-0.502c1.393-2.304,1.403-5.206,1.823-7.786c0.311-1.911,1.184-3.731,1.681-5.576
						c1.005-1.245,2.007-2.489,3.017-3.725c-1.598,3.608-2.659,7.827-1.982,11.547c0.375,2.063,2.58,4.799,4.167,1.849
						c2.547-4.732,1.059-10.792-0.003-15.624l-0.226-0.134c2.898-3.453,5.923-6.794,9.343-9.846
						c-0.474,1.275-0.808,2.573-0.948,3.874c-0.256,2.371,1.267,6.068,3.95,3.362c3.446-3.476,4.344-8.712,4.771-13.544
						c3.934-3.035,7.974-5.955,12.09-8.748c-2.986,3.604-5.526,8.023-6.004,12.456c-0.274,2.543,1.359,6.506,4.235,3.605
						c4.616-4.656,4.97-12.259,5.4-18.278l-0.116-0.125c1.956-1.279,3.924-2.535,5.907-3.752c0.96-0.589,1.931-1.157,2.897-1.737
						c-4.226,4.878-7.889,10.809-8.752,16.661c-0.494,3.35,1.526,8.473,5.562,4.526c6.451-6.309,7.314-16.254,8.183-24.16
						c2.803-1.642,5.61-3.276,8.416-4.914c-2.276,5.546-7.683,16.769-9.128,20.533c-0.674,1.761-1.79,6.063,1.425,6.122
						c1.781,0.031,4.303-2.673,5.239-4.077c2.087-3.128,5.587-16.181,6.783-25.117c1.98-1.175,3.956-2.359,5.916-3.573
						c0.726-0.45,1.454-0.88,2.185-1.299c-4.091,7.917-11.038,23.896-11.197,28.303c-0.081,2.241,0.357,5.926,3.087,6.373
						c2.827,0.462,4.168-3.632,5.36-5.546c2.746-4.409,5.771-20.47,5.903-23.518c0.102-2.359-0.301-4.832-0.327-7.155
						c1.716-0.897,3.444-1.73,5.183-2.515c-1.069,7.022-4.557,22.694-5.248,27.746c-0.312,2.298-0.438,7.761,3.426,6.928
						c2.141-0.464,4.4-4.409,5.125-6.353c1.538-4.113,2.083-19.291,1.211-30.258c5.64-2.314,11.386-4.346,17.198-6.777
						C141.816,342.266,140.834,339.466,139.07,340.204z"/>
					<g>
						<g>
							<path style="fill:#0098FB;" d="M101.057,433.957c-8.041-9.86-9.685,1.983-9.336,9.733c0.282,6.269,2.404,21.497-9.311,18.922
								c-12.272-2.698-1.558-12.745-1.741-18.073c-0.409-11.907-10.266,3.899-13,7.798c-3.744,5.342-11.321,16.479-16.197,7.453
								c-3.944-7.3,4.193-18.919,8.51-23.924c3.077-3.568,19.185-15.179,13.25-19.724c-4.494-3.441-20.97,7.134-11.625-7.746
								c3.8-6.051,12.438-8.147,17.778-12.079c7.821-5.759,11.055-8.166,6.22-15.201c-2.506-3.646-7.61-2.095-5.845-8.207
								c0.909-3.147,8.757-6.597,11.577-7.509c25.907-8.382,46.644-3.798,50.494,0.335c5.212,5.595,4.921,19.306,3.554,26.024
								c-0.68,3.34-1.643,9.342-5.848,10.338c-4.718,1.118-6.41-6.178-9.189-5.547c-7.882,1.791,4.076,13.414,4.279,17.665
								c0.263,5.504-5.965,16.837-12.48,13.133c-0.669-0.38-9.55-21.806-12.369-6.926c-1.561,8.238,11.653,12.129,6.258,21.369
								C108.272,455.089,104.072,437.654,101.057,433.957z"/>
						</g>
						<path style="fill:#0098FB;" d="M104.5,430.734c-3.658-4.169-7.17-8.568-9.373-13.699c-3.407,5.256-6.712,10.675-10.926,15.213
							c-1.189,1.28-2.981-0.762-1.801-2.033c0.514-0.553,0.997-1.14,1.488-1.717c-1.711,0.116-3.9,1.385-5.108,1.95
							c-3.118,1.459-5.628,3.649-8.18,5.914c-1.307,1.16-3.11-0.871-1.801-2.033c3.311-2.938,6.566-5.469,10.688-7.163
							c2.027-0.832,4.234-1.702,6.35-1.068c4.6-5.961,8.406-12.748,12.772-18.822c-3.413-0.843-6.783-1.174-10.325-0.667
							c-3.857,0.553-7.409,2.226-11.198,3.065c-1.707,0.378-2.239-2.286-0.529-2.664c4.556-1.009,8.711-2.963,13.423-3.298
							c3.551-0.253,6.942,0.283,10.355,1.214c5.33-7.085,11.057-13.894,17.447-20.05c2.122-2.045,4.328-4.001,6.562-5.927
							c-4.391-1.21-8.801-1.957-13.39-1.97c-2.552-0.007-5.269-0.053-7.776,0.437c-1.899,0.372-3.555,1.135-5.521,0.992
							c-1.744-0.127-1.583-2.838,0.164-2.711c2.408,0.176,5.069-1.038,7.517-1.232c2.363-0.187,4.754-0.242,7.125-0.187
							c4.849,0.112,9.54,1.09,14.172,2.477c0.068,0.02,0.106,0.063,0.166,0.089c3.873-3.285,7.779-6.535,11.488-9.991
							c0.071-0.201,0.182-0.396,0.388-0.569c0.427-0.356,0.978-0.961,1.531-1.284c7.844-6.579,15.675-13.181,23.602-19.659
							c1.35-1.103,3.157,0.925,1.801,2.033c-7.9,6.455-15.704,13.035-23.521,19.591c-0.031,0.035-0.044,0.073-0.08,0.108
							c-1.978,1.928-4.032,3.776-6.117,5.592c2.749,4.293,3.11,9.959,2.806,14.916c-0.107,1.747-2.818,1.583-2.711-0.164
							c0.265-4.31-0.01-9.105-2.185-12.945c-4.788,4.094-9.682,8.077-14.222,12.436c-1.806,1.735-3.551,3.528-5.252,5.361
							c0.089,0.065,0.181,0.11,0.262,0.205c4.718,5.531,8.048,12.084,9.246,19.284c0.286,1.72-2.376,2.259-2.664,0.529
							c-1.122-6.747-4.19-12.825-8.614-18.012c-0.009-0.011-0.01-0.022-0.018-0.033c-4.973,5.561-9.543,11.484-13.881,17.551
							c-0.739,1.033-1.455,2.092-2.165,3.159c0.404,0.03,0.788,0.235,1,0.736c2.11,4.987,5.491,9.203,9.036,13.243
							C107.685,430.247,105.655,432.05,104.5,430.734z"/>
					</g>
					<path style="fill:#452864;" d="M163.316,345.98c-3.064,8.547-6.926,16.491-9.393,25.142
						c-10.579-0.923-26.573,4.825-27.479,6.914c-2.034,4.693,5.321,5.5,8.357,4.842c5.495-1.191,15.231-7.093,18.62-9.906
						c-0.26,1.01-0.506,2.028-0.722,3.062c-0.473,2.268-0.953,4.539-1.432,6.81c-3.595-0.031-11.247-0.487-19.786,6.366
						c-1.432,1.149-3.232,2.809-2.973,4.833c0.36,2.81,3.102,1.617,4.814,0.815c2.935-1.375,12.658-6.773,17.316-9.027
						c-0.961,4.546-1.918,9.096-2.851,13.648c-6.849,1.246-15.144,2.791-19.791,8.54c-3.04,3.76,1.834,5.167,4.789,4.514
						c5.293-1.169,10.283-4.894,14.182-9.003c-0.432,2.148-0.864,4.296-1.277,6.444c-0.074,0.383-0.139,0.77-0.211,1.154
						c-3.416,0.322-6.743,0.27-9.956,1.786c-3.165,1.493-5.297,4.308-6.574,7.497c-0.563,1.406-1.442,3.034-0.854,4.597
						c0.825,2.193,2.59,0.185,3.739-0.9c2.445-2.307,5.067-4.517,7.736-6.537c1.474-1.115,2.821-2.206,4.147-3.411
						c0.343-0.311,0.861-0.66,1.393-1.016c-0.547,3.058-1.041,6.135-1.474,9.225c-5.297,2.552-11.684,5.676-14.175,11.394
						c-1.633,3.75,2.658,3.801,4.921,2.605c3.51-1.856,6.406-5.225,8.584-8.84c-0.16,1.348-0.31,2.698-0.447,4.049
						c-4.993,4.747-11.246,10.555-11.931,17.835c-0.436,4.632,4.314,3.134,6.373,1.026c2.034-2.082,3.569-4.735,4.697-7.596
						c-0.033,0.624-0.074,1.249-0.101,1.873c-0.065,1.464-0.074,2.919-0.04,4.368c-4.783,3.448-10.575,7.65-12.035,13.743
						c-0.954,3.978,3.281,3.278,5.3,1.705c3.206-2.498,5.501-6.444,7.014-10.482c0.186,2.195,0.444,4.38,0.743,6.561
						c-3.425,3.382-7.542,7.496-7.953,12.583c-0.27,3.338,3.068,2.239,4.503,0.712c2.083-2.217,3.398-5.316,4.155-8.473
						c0.365,2.382,0.74,4.767,1.08,7.162c-0.924,1.965-1.747,4.105-2.42,5.983c-0.796,2.22-1.34,4.811,0.009,6.957
						c1.778,2.827,4.168,2.329,5.62-0.519c0.663-1.301,0.839-2.673,0.753-4.071c0.808,1.039,1.797,1.882,2.828,2.25
						c2.821,1.008,3.661-1.681,2.977-4.001c-0.762-2.583-2.897-4.547-4.518-6.597c-1.201-1.518-1.956-3.39-2.983-5.002
						c-0.241-1.582-0.484-3.161-0.715-4.74c1.586,3.614,3.984,7.243,7.187,9.253c1.776,1.114,5.283,1.332,4.176-1.829
						c-1.776-5.072-7.253-8.061-11.535-10.537l-0.251,0.076c-0.594-4.468-1.02-8.955-0.966-13.539
						c0.622,1.21,1.355,2.332,2.22,3.313c1.578,1.788,5.334,3.158,5.147-0.649c-0.241-4.889-3.502-9.084-6.78-12.658
						c0.413-4.951,0.983-9.903,1.698-14.826c0.646,4.635,2.195,9.491,5.146,12.835c1.692,1.918,5.72,3.386,5.518-0.695
						c-0.323-6.548-5.697-11.938-9.851-16.316l-0.17,0.001c0.376-2.307,0.776-4.607,1.215-6.892c0.213-1.106,0.449-2.206,0.672-3.31
						c0.751,6.41,2.658,13.115,6.396,17.699c2.14,2.624,7.284,4.589,7.093-1.052c-0.306-9.018-7.065-16.364-12.315-22.338
						c0.679-3.177,1.366-6.352,2.049-9.527c2.559,5.422,7.197,16.984,9.001,20.589c0.845,1.686,3.269,5.411,5.481,3.078
						c1.224-1.294,0.929-4.98,0.524-6.618c-0.901-3.651-8.177-15.039-13.967-21.95c0.468-2.255,0.927-4.512,1.353-6.778
						c0.157-0.839,0.332-1.667,0.515-2.489c3.085,8.361,10.195,24.267,13.341,27.358c1.6,1.572,4.616,3.734,6.787,2.02
						c2.248-1.775,0.13-5.527-0.479-7.698c-1.403-5.001-11.219-18.068-13.38-20.222c-1.672-1.667-3.77-3.037-5.503-4.585
						c0.495-1.871,1.045-3.709,1.64-5.523c4.462,5.525,13.679,18.673,16.942,22.59c1.485,1.78,5.434,5.559,7.426,2.144
						c1.102-1.893-0.287-6.222-1.233-8.069c-1.999-3.909-12.836-14.551-21.521-21.305c2.096-5.725,4.472-11.337,6.598-17.268
						C166.691,345.345,163.961,344.181,163.316,345.98z"/>
				</g>
			</g>
		</g>
		<g>
			
				<radialGradient id="SVGID_1_" cx="251.8182" cy="259.948" r="318.0578" gradientTransform="matrix(1 0 0 0.6323 0 95.5864)" gradientUnits="userSpaceOnUse">
				<stop  offset="0" style="stop-color:#F2F2F2"/>
				<stop  offset="0.9877" style="stop-color:#DEF9E4"/>
			</radialGradient>
			<path style="fill:url(#SVGID_1_);" d="M480.347,275.679c-0.024-1.684-0.08-3.37-0.17-5.056
				c-1.422-26.728-11.962-53.612-31.994-71.365c-14.853-13.163-34.63-21.356-45.306-38.087c-6.058-9.495-8.599-20.976-15.164-30.127
				c-10.958-15.275-30.614-21.059-48.816-25.759c-21.53-5.558-43.786-11.014-65.781-7.756
				c-29.063,4.305-54.503,23.391-83.694,26.713c-31.549,3.591-62.688-11.732-94.387-9.889c-43.713,2.541-86.902,40.95-72.61,87.428
				c4.741,15.416,14.828,28.814,26.996,39.401c8.953,7.79,20.321,15.263,23.658,27.38c3.477,12.624-3.284,25.468-7.79,37.762
				c-7.914,21.588-8.337,47.841,6.315,65.56c14.565,17.614,62.624,21.155,62.624,21.155h259.536
				c28.483,0,54.954-15.422,68.314-40.577c0.722-1.359,1.362-2.672,1.902-3.923C473.921,325.518,480.701,300.701,480.347,275.679z"
				/>
		</g>
	</g>
</g>
<g id="OBJECTS">
	<g>
		<g>
			<defs>
				<path id="SVGID_00000050653636237843468760000003579858947048016034_" d="M480.347,275.679c-0.024-1.684-0.08-3.37-0.17-5.056
					c-1.422-26.728-11.962-53.612-31.994-71.365c-14.853-13.163-34.63-21.356-45.306-38.087
					c-6.058-9.495-8.599-20.976-15.164-30.127c-10.958-15.275-30.614-21.059-48.816-25.759c-21.53-5.558-43.786-11.014-65.781-7.756
					c-29.063,4.305-54.503,23.391-83.694,26.713c-31.549,3.591-62.688-11.732-94.387-9.889c-43.713,2.541-86.902,40.95-72.61,87.428
					c4.741,15.416,14.828,28.814,26.996,39.401c8.953,7.79,20.321,15.263,23.658,27.38c3.477,12.624-3.284,25.468-7.79,37.762
					c-7.914,21.588-8.337,47.841,6.315,65.56c14.565,17.614,62.624,21.155,62.624,21.155h259.536
					c28.483,0,54.954-15.422,68.314-40.577c0.722-1.359,1.362-2.672,1.902-3.923C473.921,325.518,480.701,300.701,480.347,275.679z"
					/>
			</defs>
			<clipPath id="SVGID_00000071533520377372732900000014862332812838792617_">
				<use xlink:href="#SVGID_00000050653636237843468760000003579858947048016034_"  style="overflow:visible;"/>
			</clipPath>
			<g style="clip-path:url(#SVGID_00000071533520377372732900000014862332812838792617_);">
				<path style="fill:#FFBEA7;" d="M370.886,224.583c4.728,0.175,6.145,1.017,8.182,3.304c1.51,1.695,2.852,3.532,4.063,5.452
					l14.838,23.522l12.501-33.659c-1.705-2.035-3.87-6.581-3.874-14.528l0.01-1.804c0.004-0.716,0.754-1.205,1.397-0.89
					c0.858,0.421,1.684,1.638,2.21,5.634l2.948-14.768c0.14-0.702,0.517-1.354,1.113-1.75c0.635-0.423,1.38-0.437,1.539,1.614
					l-1.083,13.197l3.768-13.718c0.207-0.753,0.694-1.419,1.394-1.765c0.761-0.376,1.656-0.335,1.879,1.703l-3.035,14.859
					l4.679-11.417c0.256-0.626,0.787-1.127,1.451-1.256c0.725-0.14,1.476,0.159,1.186,2.216l-3.119,11.692
					c0,0,1.791-5.575,3.624-7.69c0.684-0.789,1.978-0.132,1.769,0.891c-0.827,4.05-4.032,16.642-9.536,20.046l-8.06,49.037
					c-1.24,7.468-10.201,11.099-15.983,6.21c-0.2-0.169-0.396-0.347-0.586-0.534l-28.585-35.242l-0.617-22.397L370.886,224.583z"/>
				<path style="fill:#2C60C4;" d="M368.541,255.449l14.571,15.896l10.666-21.129l-8.927-16.701
					c-2.847-5.326-8.083-8.958-14.069-9.758l-0.016-0.002L368.541,255.449z"/>
				<path style="fill:#FFBEA7;" d="M317.91,225.031L317.91,225.031c-7.31,0.602-13.922,4.97-16.897,11.675
					c-0.961,2.166-1.573,4.508-1.776,6.948l-4.325,29.263c-2.688,18.185-2.124,36.702,1.664,54.69l6.783,32.209
					c0,0-4.575,12.804,2.175,20.959l2.415,2.2c2.097,1.911,5.444,0.22,5.151-2.601v0c-0.082-0.794-0.462-1.524-1.076-2.035
					c-1.511-1.26-4.315-7.597-4.145-12.894l2.691,5.954c0.762,0.761,2.059,0.264,2.121-0.812c0.136-2.322-0.032-5.984-1.651-10.062
					l-1.581-64.915L317.91,225.031z"/>
				<path style="fill:#2C60C4;" d="M309.066,227.659l-1.995,1.664c-10.114,6.983-15.213,47.47-15.213,47.47l22.666,3.37
					l4.563-34.722L309.066,227.659z"/>
				<g>
					<g>
						<path style="fill:#452864;" d="M368.851,495.151l0.434,0.336c-2.693,0.225-7.461,0.824-7.461,0.824
							c-0.016,0.037-0.033,0.074-0.032,0.11l-17.931-153.894l-4.44,0.009l-12.089,155.728c-0.074-0.253-0.165-0.524-0.274-0.795
							c0,0-4.791-0.383-7.491-0.486l-0.068,0.02l1.308-1.067c-3.154,1.007-19.966-144.347-10.796-179.88l63.54,4.454
							C376.785,349.87,368.851,495.151,368.851,495.151z"/>
						<path style="fill:#2C60C4;" d="M375.861,225.471l-24.47-7.951l-2.344-0.624c-0.191-1.352,1.463-2.083,1.356-2.816
							l-5.796,0.136l-0.315-0.154l-0.801,0.018c0.007,0.046,0.014,0.109,0.021,0.161l-8.671,0.203c0,0,0.795,0.423,0.742,0.789
							l-27.031,12.319l7.329,55.811c0.614,4.675,0.209,9.428-1.21,13.925c-2.38,7.542-5.973,19.943-6.824,28.502h65.964
							c0.814-6.598-2.602-19.267-5.136-27.444c-1.635-5.275-2.054-10.844-1.24-16.307L375.861,225.471z"/>
						<path style="fill:#452864;" d="M386.871,495.154c-20.119,0.491-29.106,0.323-25.514-10.397
							c-0.001-0.035,0.016-0.071,0.032-0.107c0,0,4.759-0.586,7.447-0.806l17.929,6.675
							C391.572,491.968,389.682,495.073,386.871,495.154z"/>
						<path style="fill:#452864;" d="M303.662,497.398c-2.739,0.044-4.716-2.973-0.105-4.635l17.083-7.432l0.016-0.018l0.066-0.019
							c2.626,0.1,7.283,0.472,7.283,0.472c0.106,0.263,0.194,0.527,0.266,0.773C331.617,496.447,322.846,496.999,303.662,497.398z"
							/>
						<path style="fill:#E4959D;" d="M344.335,226.734h-2.921c-3.673,0-6.651-2.978-6.651-6.651v-12.177
							c0-1.664,1.349-3.013,3.013-3.013h10.196c1.664,0,3.013,1.349,3.013,3.013v12.177
							C350.985,223.757,348.008,226.734,344.335,226.734z"/>
						<g>
							<path style="fill:#FFBEA7;" d="M362.455,189.458c-0.765-0.048-1.627,0.255-2.465,0.78c-1.247-5.109-4.082-10.51-7.504-14.189
								c-1.444-1.833-3.08-3.011-4.847-3.7c-0.957-0.439-1.923-0.726-2.883-0.787c-0.659-0.041-1.309-0.048-1.951-0.024
								c-0.642,0.006-1.291,0.045-1.948,0.118c-0.956,0.106-1.907,0.44-2.842,0.924c-1.732,0.773-3.308,2.028-4.662,3.928
								c-3.242,3.84-5.814,9.371-6.814,14.534c-0.863-0.484-1.739-0.745-2.501-0.661c-2.552,0.283-3.289,4.357-2.512,7.412
								c0.986,3.874,3.956,5.023,6.702,5.734c1.311,2.547,3.139,5.028,5.23,7.09c2.195,2.464,4.995,4.263,8.155,4.949
								c0.094,0.022,0.187,0.04,0.28,0.059c0.184,0.036,0.363,0.088,0.549,0.116c0.125,0.019,0.252,0.015,0.378,0.028
								c0.106,0.011,0.212,0.016,0.317,0.023c0.244,0.014,0.488,0.024,0.733,0.017c0.246-0.004,0.489-0.026,0.731-0.052
								c0.105-0.013,0.21-0.023,0.316-0.039c0.125-0.019,0.252-0.021,0.376-0.046c0.185-0.037,0.361-0.098,0.542-0.143
								c0.092-0.023,0.184-0.046,0.276-0.072c3.125-0.838,5.836-2.771,7.91-5.339c1.989-2.159,3.695-4.725,4.881-7.331
								c2.709-0.842,5.62-2.133,6.418-6.049C365.951,193.652,365.018,189.619,362.455,189.458z"/>
							<g>
								<path style="fill:#452864;" d="M360.542,174.54c-2.977-4.187-5.784-7.439-10.71-8.98
									c-5.561-1.739-11.556-1.745-16.823,0.885c-5.005,2.499-8.01,6.701-5.51,12.297c-2.314,0.91-3.744,4.87-4.704,7.037
									c-1.097,2.478-1.026,4.839,0.203,7.195c0.938,1.798,2.28,4.413,4.245,5.225c2.617,1.082,2.052-3.117,2.223-4.969
									c0.199-2.16,0.492-4.438,0.421-6.622l0.421,0.147c1.516,1.279,4.841,0.609,6.595,0.165c3.139-0.794,5.992-2.317,8.843-3.859
									c1.327-0.717,2.797-1.431,3.673-2.741c-0.141,1.255,0.249,2.391,0.826,3.487c0.546,1.036,1.154,1.637,2.139,2.215
									c1.237,0.725,2.951,0.589,4.067,1.285c0.941,0.587,0.522,0.109,0.824,1.198c0.26,0.939,0.051,2.443,0.007,3.407
									c-0.097,2.126-0.547,4.499-0.407,6.606C365.851,194.523,365.426,181.409,360.542,174.54z"/>
							</g>
							<g>
								<path style="fill:#452864;" d="M350.814,195.257c0.134,0.918-0.433,1.761-1.267,1.883c-0.834,0.123-1.619-0.523-1.754-1.441
									c-0.135-0.918,0.432-1.761,1.267-1.883C349.895,193.694,350.679,194.339,350.814,195.257z"/>
								<path style="fill:#452864;" d="M337.339,195.582c0.134,0.918-0.433,1.761-1.267,1.883c-0.834,0.123-1.62-0.523-1.754-1.441
									c-0.134-0.918,0.433-1.761,1.267-1.884C336.42,194.018,337.205,194.664,337.339,195.582z"/>
								<g>
									<g>
										<path style="fill:#452864;" d="M352.029,192.141c-0.193,0.038-0.401-0.036-0.524-0.207
											c-1.934-2.686-4.439-1.122-4.546-1.054c-0.241,0.155-0.561,0.085-0.72-0.156c-0.155-0.242-0.085-0.565,0.158-0.72
											c1.182-0.761,3.951-1.462,5.955,1.321c0.168,0.233,0.115,0.559-0.12,0.727
											C352.17,192.099,352.101,192.127,352.029,192.141z"/>
									</g>
								</g>
								<g>
									<g>
										<path style="fill:#452864;" d="M344.026,206.742c0.054-0.189,0.215-0.34,0.423-0.371c3.273-0.495,3.024-3.437,3.013-3.563
											c-0.028-0.285,0.181-0.539,0.468-0.569c0.286-0.028,0.541,0.182,0.568,0.469c0.138,1.399-0.504,4.182-3.894,4.695
											c-0.284,0.043-0.55-0.153-0.592-0.439C344,206.887,344.005,206.813,344.026,206.742z"/>
									</g>
								</g>
								<g>
									<g>
										<path style="fill:#452864;" d="M337.697,190.79c-0.113,0.121-0.291,0.173-0.459,0.116
											c-2.637-0.879-3.573,1.417-3.613,1.516c-0.088,0.224-0.341,0.333-0.567,0.247c-0.224-0.089-0.335-0.343-0.246-0.568
											c0.431-1.099,1.973-2.936,4.704-2.026c0.229,0.076,0.353,0.324,0.275,0.554
											C337.771,190.691,337.738,190.745,337.697,190.79z"/>
									</g>
								</g>
								<g>
									<path style="fill:#452864;" d="M341.357,204.23c-0.36,0.009-0.703-0.08-1.006-0.267c-0.963-0.596-1.237-2.005-0.731-3.771
										l1.098-5.866c0.042-0.226,0.252-0.376,0.486-0.334c0.228,0.043,0.376,0.261,0.333,0.487l-1.107,5.904
										c-0.475,1.67-0.124,2.571,0.359,2.87c0.498,0.307,1.24,0.106,1.901-0.501c0.168-0.154,0.448-0.165,0.607,0
										c0.156,0.165,0.173,0.405,0.01,0.566C342.665,203.906,341.983,204.215,341.357,204.23z"/>
								</g>
							</g>
						</g>
					</g>
				</g>
			</g>
			<g style="clip-path:url(#SVGID_00000071533520377372732900000014862332812838792617_);">
				<g>
					<path style="fill:#2C60C4;" d="M155.202,188.506c0,8.379-1.794,15.671-3.415,23.828c-1.4,7.045-3.32,13.369-4.463,20.41
						c3.311-8.34,14.258-12.588,21.81-12.194c15.01,0.782,18.314,9.015,19.706,13.341c-0.129-8.05-0.005-16.171,0.765-24.097
						c0.675-6.948,2.132-15.366-0.516-22.077"/>
				</g>
				<path style="fill:#FFBEA7;" d="M159.647,228.53l-2.48,15.657l-1.019,6.483l-5.548,5.275l-3.888,3.688l-23.453,22.297
					c-0.21,0.158-0.431,0.315-0.651,0.452c-6.368,4.098-14.784-0.651-15.047-8.217l-1.671-49.67
					c-5.023-4.088-6.578-16.981-6.872-21.11c-0.074-1.04,1.292-1.524,1.87-0.651c1.45,2.186,2.459,7.387,2.585,8.028l-1.576-11.937
					c-0.021-2.07,0.767-2.27,1.471-2.039c0.641,0.21,1.103,0.778,1.271,1.429l3.173,11.926l-1.103-15.131
					c0.483-1.986,1.387-1.912,2.091-1.44c0.651,0.431,1.04,1.156,1.156,1.923l1.965,14.091l0.63-13.229
					c0.42-2.007,1.156-1.902,1.734-1.397c0.536,0.473,0.83,1.166,0.872,1.881l1.019,15.026c1.04-3.898,2.018-5.002,2.921-5.306
					c0.673-0.231,1.355,0.357,1.271,1.061l-0.221,1.797c-1.03,7.881-3.762,12.105-5.716,13.902l8.059,34.991l10.308-12.536
					l7.408-9.016l1.377-1.671c0.21-0.2,0.42-0.399,0.651-0.599c3.583-3.194,8.07-5.138,12.799-5.748
					c1.072-0.137,2.154-0.21,3.236-0.21H159.647z"/>
				<path style="fill:#FFBEA7;" d="M214.108,319.548l-3.121,29.853c0,0,5.359,11.18,0,19.208l-1.975,2.228
					c-1.723,1.923-4.918,0.715-4.918-1.881c0-0.725,0.273-1.419,0.778-1.944c1.25-1.282,3.205-7.292,2.553-12.084l-1.881,5.653
					c-0.62,0.767-1.849,0.431-2.007-0.536c-0.336-2.091-0.536-5.433,0.557-9.278l-4.676-59.022l-6.536-28.886l-1.639-7.229
					l-2.532-11.159l-3.594-15.877l-0.01-0.053c0.588-0.011,1.177,0,1.755,0.053c0.053,0,0.095,0,0.137,0.011
					c5.989,0.452,11.516,3.688,14.532,8.932c0.462,0.799,0.872,1.639,1.208,2.511c0.473,1.156,0.82,2.375,1.061,3.625l1.923,7.524
					l4.749,18.609C214.623,286.039,215.853,302.883,214.108,319.548z"/>
				<path style="fill:#CFB199;" d="M193.005,508.084l0.521,0.005c1.545,0.013,3.033,0.686,4.05,1.862
					c2.322,2.673,8.474,2.652,11.888,1.888c0.183-0.033,0.351-0.086,0.537-0.137c1.449-0.411,1.809-2.312,0.599-3.223l-12.025-9.708
					c-0.012-0.055,0.013-0.268,0.069-0.603l-7.03,0.155c-0.237,0.818-0.408,1.374-0.408,1.374
					C190.296,503.587,189.016,508.063,193.005,508.084z"/>
				<path style="fill:#CFB199;" d="M153.172,508.084l-0.521,0.005c-1.545,0.013-3.033,0.686-4.05,1.862
					c-2.322,2.673-8.474,2.652-11.888,1.888c-0.184-0.033-0.352-0.086-0.537-0.137c-1.449-0.411-1.809-2.312-0.6-3.223l12.025-9.708
					c0.012-0.055-0.013-0.268-0.068-0.603l7.03,0.155c0.237,0.818,0.408,1.374,0.408,1.374
					C155.881,503.587,157.162,508.063,153.172,508.084z"/>
				<path style="fill:#452864;" d="M143.747,406.307l-0.824,5.509c-2.242,14.983-2.448,30.195-0.614,45.233
					c1.844,15.123,4.14,33.635,5.294,41.722l7.179,0.292l12.475-141.803l24.368,141.608l7.34,0.612
					c0.345-6.416,1.218-19.259,2.075-31.453c1.353-19.252-0.224-38.595-4.669-57.376v0l3.647-47.144
					c3.856-15.197,1.134-30.342-2.705-41.876h-56.008c-3.123,9.108-5.374,20.798-4.519,34.844L143.747,406.307z"/>
				<path style="fill:#452864;" d="M191.328,243.85c-0.883,0.231-1.755,0.431-2.616,0.62c-12.578,2.795-23.201,1.902-31.544-0.284
					c-2.417-0.63-4.634-1.366-6.662-2.154c1.828-5.769,3.751-10.96,4.361-12.83c0.095-0.273,0.168-0.494,0.221-0.588
					c0.021-0.074,0.042-0.116,0.042-0.116s0,0,0.074,0c0.315,0,2.69-0.021,5.075-0.032c0.977-0.011,1.944-0.011,2.785-0.021
					c1.387,0,1.24-1.03,1.44-2.364l0.263-1.786l11.275,0.42l-0.189,2.144c-0.074,0.851,1.797,1.587,2.627,1.734h8.522
					C186.998,228.593,190.046,237.977,191.328,243.85z"/>
				<path style="fill:#FFBEA7;" d="M182.423,228.593c0,24.473-12.925,22.96-12.925,22.96c-13.481-1.618-9.646-21.152-9.226-23.086
					c0.977-0.011,1.944-0.011,2.785-0.021c1.387,0,1.24-1.03,1.44-2.364l0.263-1.786l11.275,0.42l-0.189,2.144
					c-0.074,0.851,1.797,1.587,2.627,1.734H182.423z"/>
				<path style="fill:#E4959D;" d="M176.049,224.705c0,0-0.005,0.045-0.014,0.125c-0.173,1.503-1.674,2.487-3.117,2.031
					l-8.139-2.572c0.018-0.488,0.072-0.975,0.126-1.463c0.072-0.849,0.181-1.716,0.289-2.547l0.614-4.587l11.161,3.197
					L176.049,224.705z"/>
				<path style="fill:#FFBEA7;" d="M153.307,194.278c0.765-0.033,1.619,0.286,2.447,0.826c1.341-5.078,4.275-10.417,7.762-14.026
					c1.477-1.803,3.132-2.948,4.91-3.602c0.964-0.42,1.934-0.689,2.894-0.731c0.659-0.028,1.309-0.023,1.949,0.013
					c0.641,0.019,1.289,0.069,1.943,0.155c0.953,0.124,1.895,0.475,2.82,0.977c1.715,0.805,3.266,2.088,4.582,4.011
					c3.164,3.895,5.629,9.467,6.528,14.641c0.871-0.467,1.75-0.711,2.509-0.612c2.543,0.331,3.202,4.412,2.368,7.448
					c-1.058,3.849-4.046,4.941-6.801,5.598c-1.357,2.518-3.23,4.962-5.357,6.981c-2.239,2.419-5.069,4.162-8.237,4.788
					c-0.093,0.02-0.187,0.036-0.28,0.053c-0.184,0.033-0.364,0.081-0.55,0.105c-0.125,0.017-0.252,0.011-0.378,0.021
					c-0.106,0.008-0.212,0.012-0.318,0.017c-0.244,0.01-0.487,0.015-0.732,0.003c-0.245-0.009-0.487-0.035-0.729-0.066
					c-0.105-0.014-0.21-0.027-0.315-0.044c-0.124-0.021-0.252-0.026-0.375-0.054c-0.184-0.041-0.358-0.104-0.539-0.152
					c-0.091-0.025-0.183-0.049-0.274-0.077c-3.104-0.895-5.774-2.877-7.797-5.48c-1.945-2.194-3.6-4.788-4.735-7.413
					c-2.688-0.891-5.571-2.236-6.294-6.162C149.737,198.399,150.745,194.39,153.307,194.278z"/>
				<g>
					<g>
						<path style="fill:#452864;" d="M173.3,212.525c1.817-0.483,3.829-1.709,4.784-4.648c0.078-0.241-0.054-0.501-0.296-0.58
							c-0.239-0.079-0.5,0.052-0.58,0.296c-1.708,5.248-7.141,4.259-7.374,4.215c-0.25-0.05-0.49,0.115-0.54,0.364
							c-0.049,0.249,0.115,0.491,0.364,0.539C169.691,212.719,171.389,213.033,173.3,212.525z"/>
					</g>
					<g>
						<path style="fill:#452864;" d="M179.718,201.709c-0.096,0.862-0.868,1.483-1.725,1.388c-0.856-0.095-1.473-0.871-1.377-1.733
							c0.095-0.862,0.867-1.483,1.724-1.388C179.197,200.072,179.814,200.847,179.718,201.709z"/>
					</g>
					<g>
						<path style="fill:#452864;" d="M167.075,201.165c-0.096,0.862-0.868,1.483-1.725,1.388c-0.856-0.095-1.473-0.871-1.377-1.733
							c0.096-0.862,0.868-1.483,1.725-1.388C166.554,199.528,167.171,200.303,167.075,201.165z"/>
					</g>
					<g>
						<path style="fill:#452864;" d="M181.791,197.859c0.016-0.005,0.032-0.01,0.048-0.016c0.238-0.091,0.356-0.358,0.265-0.595
							c-1.093-2.832-3.611-2.841-4.799-2.464c-0.241,0.079-0.372,0.338-0.294,0.579c0.077,0.243,0.31,0.379,0.579,0.298
							c0.083-0.027,2.604-0.798,3.652,1.919C181.328,197.8,181.566,197.918,181.791,197.859z"/>
					</g>
					<g>
						<path style="fill:#452864;" d="M167.987,195.477c0.01-0.013,0.019-0.028,0.027-0.042c0.126-0.222,0.048-0.503-0.173-0.628
							c-2.642-1.495-4.594,0.096-5.272,1.142c-0.136,0.213-0.073,0.497,0.14,0.634c0.214,0.139,0.48,0.096,0.637-0.137
							c0.046-0.074,1.505-2.27,4.04-0.836C167.591,195.727,167.851,195.667,167.987,195.477z"/>
					</g>
					<g>
						<path style="fill:#452864;" d="M170.272,207.745c0.246,0.011,0.453-0.179,0.465-0.424c0.011-0.246-0.178-0.455-0.423-0.468
							c-0.009,0-0.859-0.059-1.057-0.527c-0.092-0.216-0.161-0.878,1.143-2.368c0.162-0.185,0.143-0.467-0.043-0.63
							c-0.185-0.161-0.467-0.142-0.631,0.042c-1.221,1.396-1.645,2.478-1.291,3.307c0.423,0.992,1.777,1.066,1.835,1.068H170.272z"
							/>
					</g>
				</g>
				<g>
					<path style="fill:#2C60C4;" d="M190.758,188.082c-0.598-5.274-2.706-10.703-6.921-13.604
						c-6.59-4.536-17.214-2.672-23.219,2.008c-6.057,4.722-7.295,12.235-6.057,19.451c0.303,1.765,0.688,3.546,1.173,5.27
						c0.266,0.944,0.572,1.877,0.943,2.785c0.16,0.392,1.299,2.133,1.2,2.445c1.025-3.255-0.047-6.822,0.56-10.181
						c0.03-0.164,0.067-0.334,0.173-0.462c0.121-0.146,0.311-0.211,0.492-0.269c3.415-1.112,6.864-2.203,10.026-3.908
						c3.161-1.706,6.056-4.089,7.775-7.243c0.106,5.683,3.862,11.132,9.135,13.253c-0.024,2.106-0.347,4.208-0.955,6.224
						c-0.544,1.805-1.315,3.764-0.578,5.499c-0.086-0.202,2.158-2.982,2.391-3.372c0.776-1.298,1.443-2.661,1.998-4.068
						c1.032-2.619,1.696-5.437,1.944-8.242C190.994,191.913,190.977,190.007,190.758,188.082z"/>
				</g>
				<path style="fill:#E24D73;" d="M208.823,263.195c-0.589,0.41-1.608,1.282-2.764,2.89c-1.261,1.755-2.102,3.772-2.648,5.863
					c-0.588,2.207-2.102,5.8-5.842,6.158c-2.564,0.242-4.939-1.355-5.958-3.72l-1.671-3.919c-1.513,3.751-2.722,7.786-3.121,11.748
					c-1.072,11.012,3.709,20.837,7.618,30.872c3.468,8.753,5.559,18.294,5.559,18.294c-15.194,5.149-32.08,8.469-46.402,5.054
					c-5.296-1.25-10.224-3.415-14.616-6.767c0,0,5.737-20.637,11.685-36.178c0.977-2.49,1.713-6.735,1.566-9.415
					c-0.41-8.017-3.72-14.038-5.107-21.467l-10.876,11.107c-1.797,1.839-4.602,2.469-6.904,1.324
					c-3.352-1.692-3.468-5.59-3.205-7.86c0.231-2.049,0.2-4.13-0.284-6.137c-0.757-3.163-1.944-4.455-1.944-4.455l8.89-10.812
					l7.408-9.016c2.459,1.608,5.916,3.562,10.298,5.275c2.028,0.788,4.245,1.524,6.662,2.154c8.343,2.186,18.966,3.079,31.544,0.284
					c0.862-0.189,1.734-0.389,2.616-0.62c3.646-0.935,7.45-2.186,11.411-3.804c0.473,1.156,0.82,2.375,1.061,3.625l1.303,5.096
					l4.024,13.492C209.233,262.607,209.117,262.985,208.823,263.195z"/>
				<g>
					<path style="fill:#2C60C4;" d="M158.602,206.316c0-4.746-0.525-9.299-0.525-14.032l-3.901-2.481
						c-0.821,7.517-7.031,35.876-8.189,39.669c-1.559,5.105-0.556,8.357,1.518,13.104c1.883,4.309,5.489,7.64,7.413,11.857
						c4.338-7.004,3.333-15.216,4.21-22.843C160.091,223.21,158.602,214.76,158.602,206.316z"/>
				</g>
				<g>
					<path style="fill:#2C60C4;" d="M194.765,229.536c-0.747-3.848-3.847-35.92-3.847-35.92l-4.212-1.834
						c-0.503,4.744-1.509,9.285-2.014,14.041c-0.898,8.463-3.276,16.871-3.209,25.306c0.061,7.679-1.811,15.868,1.754,23.062
						c2.36-4.148,6.297-7.341,8.626-11.584C194.429,237.933,195.771,234.714,194.765,229.536z"/>
				</g>
			</g>
		</g>
		<g>
			<g>
				<path style="fill:#452864;" d="M271.055,266.836c2.692-4.958,5.302-12.498-1.149-14.896l-38.424,0.42
					c-1.043,0.535-2.485-0.058-3.768,1.041c-1.242,1.063-2.084,2.775-2.285,4.581c-0.38,3.405,0.615,6.599,3.352,7.135
					c-3.947,2.366-6.225,12.515-1.672,15.788c2.605,1.872,5.48,0.044,7.966-0.468c1.556-0.32,2.466,1.11,4.105,1.981
					c1.544,0.82,3.033,1.529,4.735,1.684c3.041,0.276,7.037-0.65,8.561-4.423c1.561,0.997,2.456,2.738,4.354,3.422
					c1.454,0.524,3.034,0.739,4.538,0.532c3.057-0.422,3.992-3.023,3.974-6.673c3.043,0.8,6.086,1.914,8.477-1.357
					C275.894,272.764,274.416,266.761,271.055,266.836z"/>
			</g>
			<path style="fill:#FFBEA7;" d="M265.989,290.913l-3.235,7.896c-4.661,11.335-20.782,11.143-25.16-0.317l-2.828-7.432
				c0.464-0.011,0.916-0.034,1.369-0.045c2.025-0.102,3.846-0.407,5.407-1.765c0.045-0.034,0.091-0.068,0.136-0.113
				c0.815-0.758,1.448-1.697,1.821-2.749c0.226-0.577,0.351-1.199,0.407-1.821c0.045-0.43-0.294-4.333-0.826-4.333
				c0.645-0.147,11.811-2.84,11.811-2.84c0.113,1.267,0.226,2.523,0.339,3.79c0.136,1.505-0.057,3.021,0.226,4.514
				c0.011,0.113,0.023,0.226,0.057,0.328c0.26,1.176,0.871,2.455,1.855,3.213c0.113,0.091,0.226,0.181,0.351,0.249
				c2.07,1.267,4.808,1.324,7.138,1.414C265.073,290.913,265.491,290.913,265.989,290.913z"/>
			<path style="fill:#E4959D;" d="M257.369,289.239c-2.308,1.063-5.023,1.663-7.919,1.663s-5.6-0.6-7.908-1.652
				c0.045-0.034,0.091-0.068,0.136-0.113c0.815-0.758,1.448-1.697,1.821-2.749c0.226-0.577,0.351-1.199,0.407-1.821
				c0.045-0.43-0.294-4.333-0.826-4.333c0.645-0.147,11.811-2.84,11.811-2.84c0.113,1.267,0.226,2.523,0.339,3.79
				c0.136,1.505-0.057,3.021,0.226,4.514c0.011,0.113,0.023,0.226,0.057,0.328C255.774,287.202,256.384,288.481,257.369,289.239z"/>
			<path style="fill:#E24D73;" d="M256.147,305.869c-1.493,10.363-4.152,22.309-7.025,34.56
				c-2.885-12.749-5.532-25.182-6.901-35.816C246.248,307.565,251.701,307.995,256.147,305.869z"/>
			<path style="fill:#0098FB;" d="M311.127,335.31l-7.659-9.121c-5.937-7.07-11.186-14.669-16.137-22.461
				c-10.47-16.482-21.345-12.818-21.345-12.818l0.001,0.007l-0.032,0.086l-3.202,7.806c-1.391,3.371-3.801,5.736-6.607,7.059
				c-1.493,10.363-4.152,22.309-7.025,34.56c-2.885-12.749-5.532-25.182-6.901-35.816c-1.98-1.437-3.62-3.473-4.627-6.12
				l-2.828-7.432c-0.769,0.034-1.527,0.068-2.296,0.124c-1.72,0.124-3.439,0.362-5.102,0.882l0.008,0.082
				c-4.314,1.182-9.731,4.361-14.709,12.197c-4.951,7.793-10.2,15.391-16.137,22.461l-7.659,9.121
				c-3.878,4.618-1.516,11.704,4.358,13.07l32.252-25.433c0.258,2.289,0.817,4.555,1.694,6.705l3.926,9.378l0.577,1.403
				c0.781,1.912,1.222,3.88,1.335,5.883c0.17,2.817-0.339,5.622-1.482,8.224l-14.899,24.13c22.931,15.985,43.226,16.833,60.15-1.753
				l-12.105-19.379c-0.69-1.109-1.109-2.376-1.222-3.677c-0.057-0.724-0.057-1.459-0.057-2.206c0-1.527,0.136-3.009,0.588-4.197
				l3.1-6.075l3.733-7.297c1.81-3.54,3.303-7.575,3.916-11.585l32.033,25.26C312.642,347.014,315.005,339.929,311.127,335.31z"/>
			<g>
				<path style="fill:#FFBEA7;" d="M308.686,348.954l-21.146,13.914l-5.691,3.75l-3.255,2.151l-2.075-5.482
					c0.323-0.152,0.609-0.381,0.857-0.666l0.266-0.305l3.75-4.302c0,0,18.006-29.807,27.885-24.744
					C314.53,337.305,314.207,345.318,308.686,348.954z"/>
				<path style="fill:#FFBEA7;" d="M278.594,368.768l-0.476,0.323c-0.761,0.476-1.656,0.762-2.551,0.799l-9.345,0.247
					c1.466,3.293-11.877,10.183-14.618,5.767c0,0,6.586-11.249,7.804-12.429l1.408-1.333c1.561-1.465,3.807-1.941,5.844-1.237
					l7.442,2.57c0.819,0.285,1.694,0.209,2.417-0.19L278.594,368.768z"/>
			</g>
			<g>
				<path style="fill:#FFBEA7;" d="M191.313,348.954l21.146,13.914l5.691,3.75l3.255,2.151l2.075-5.482
					c-0.324-0.152-0.609-0.381-0.857-0.666l-0.267-0.305l-3.75-4.302c0,0-18.006-29.807-27.885-24.744
					C185.47,337.305,185.793,345.318,191.313,348.954z"/>
				<path style="fill:#FFBEA7;" d="M221.406,368.768l0.476,0.323c0.761,0.476,1.656,0.762,2.55,0.799l9.346,0.247
					c-1.466,3.293,11.877,10.183,14.618,5.767c0,0-6.586-11.249-7.804-12.429l-1.408-1.333c-1.561-1.465-3.807-1.941-5.844-1.237
					l-7.442,2.57c-0.819,0.285-1.694,0.209-2.417-0.19L221.406,368.768z"/>
			</g>
			<g>
				<path style="fill:#FFBEA7;" d="M270.318,255.572c-0.8-0.069-1.71,0.226-2.602,0.755c-1.177-5.382-4.011-11.112-7.503-15.051
					c-1.467-1.957-3.15-3.232-4.984-3.998c-0.992-0.483-1.996-0.809-3-0.896c-0.69-0.06-1.371-0.084-2.043-0.074
					c-0.673-0.01-1.354,0.014-2.043,0.074c-1.004,0.087-2.008,0.413-3,0.897c-1.834,0.766-3.517,2.041-4.983,3.997
					c-3.492,3.94-6.326,9.669-7.503,15.052c-0.892-0.529-1.802-0.824-2.603-0.755c-2.68,0.233-3.555,4.48-2.818,7.7
					c0.935,4.083,4.017,5.362,6.875,6.175c1.309,2.701,3.161,5.346,5.3,7.558c2.237,2.636,5.125,4.591,8.417,5.39
					c0.097,0.025,0.194,0.047,0.291,0.068c0.191,0.043,0.377,0.101,0.572,0.135c0.13,0.023,0.264,0.022,0.395,0.039
					c0.111,0.014,0.221,0.022,0.332,0.033c0.255,0.021,0.51,0.038,0.767,0.036c0.257,0.002,0.512-0.015,0.767-0.036
					c0.11-0.01,0.221-0.018,0.332-0.033c0.131-0.016,0.265-0.016,0.395-0.039c0.194-0.034,0.38-0.093,0.572-0.135
					c0.096-0.022,0.194-0.044,0.291-0.068c3.294-0.799,6.182-2.755,8.419-5.392c2.138-2.212,3.989-4.856,5.297-7.556
					c2.858-0.813,5.941-2.092,6.875-6.175C273.874,260.052,272.999,255.805,270.318,255.572z"/>
				<path style="fill:#452864;" d="M268.153,255.968c-0.199-0.242-0.557-0.277-0.795-0.077l-5.537,4.56
					c-0.643-2.459-2.864-4.289-5.522-4.289c-3.09,0-5.6,2.465-5.707,5.529c-0.415-0.224-0.874-0.368-1.36-0.368
					c-0.515,0-1.002,0.141-1.428,0.383c-0.099-3.071-2.614-5.544-5.709-5.544c-2.292,0-4.259,1.362-5.174,3.311l-3.88-3.563
					c-0.228-0.209-0.587-0.197-0.799,0.034c-0.211,0.23-0.197,0.588,0.034,0.799l4.239,3.892c-0.091,0.405-0.148,0.822-0.148,1.254
					c0,3.159,2.57,5.728,5.728,5.728c2.532,0,4.661-1.663,5.415-3.947c0.022-0.032,0.057-0.051,0.072-0.089
					c0.273-0.685,0.92-1.127,1.649-1.127c0.67,0,1.282,0.392,1.584,0.995c0.685,2.397,2.871,4.167,5.484,4.167
					c3.157,0,5.727-2.57,5.727-5.728c0-0.045-0.012-0.087-0.013-0.133l6.064-4.994C268.318,256.564,268.352,256.209,268.153,255.968
					z M242.095,266.486c-2.534,0-4.597-2.063-4.597-4.597s2.063-4.596,4.597-4.596c2.534,0,4.596,2.061,4.596,4.596
					S244.629,266.486,242.095,266.486z M256.299,266.486c-2.086,0-3.831-1.406-4.391-3.314c-0.008-0.051-0.013-0.103-0.036-0.152
					c-0.006-0.012-0.016-0.021-0.022-0.034c-0.087-0.354-0.147-0.718-0.147-1.098c0-2.534,2.061-4.596,4.596-4.596
					s4.596,2.061,4.596,4.596S258.833,266.486,256.299,266.486z"/>
				<g>
					<g>
						<path style="fill:#452864;" d="M247.495,269.394c0.133-0.042,0.242-0.147,0.283-0.29c0.063-0.226-0.069-0.46-0.295-0.524
							c-1.364-0.384-1.426-0.716-1.427-0.719c0.001-0.35,1.415-1.076,2.938-1.514c0.253-0.092,0.357-0.299,0.293-0.524
							c-0.065-0.225-0.299-0.357-0.525-0.293c-1.066,0.299-3.557,1.135-3.555,2.332c0.001,0.861,1.168,1.289,2.045,1.536
							C247.336,269.421,247.419,269.418,247.495,269.394z"/>
					</g>
					<g>
						<path style="fill:#452864;" d="M251.477,273.795c1.883-0.588,3.936-1.964,4.805-5.087c0.071-0.256-0.08-0.523-0.337-0.595
							c-0.254-0.072-0.522,0.078-0.595,0.336c-1.553,5.578-7.292,4.786-7.538,4.751c-0.264-0.041-0.508,0.143-0.55,0.406
							c-0.04,0.264,0.142,0.509,0.406,0.549C247.702,274.161,249.496,274.414,251.477,273.795z"/>
					</g>
					<g>
						<path style="fill:#452864;" d="M244.491,261.992c-0.064,0.94-0.792,1.657-1.627,1.6c-0.835-0.057-1.46-0.865-1.396-1.805
							c0.063-0.94,0.792-1.656,1.627-1.6C243.93,260.244,244.555,261.052,244.491,261.992z"/>
					</g>
					<g>
						<path style="fill:#452864;" d="M257.901,261.992c-0.064,0.94-0.793,1.657-1.627,1.6c-0.835-0.057-1.46-0.865-1.396-1.805
							c0.063-0.94,0.792-1.656,1.627-1.6C257.339,260.244,257.965,261.052,257.901,261.992z"/>
					</g>
					<g>
						<path style="fill:#452864;" d="M259.714,258.04c0.017-0.005,0.033-0.012,0.049-0.019c0.245-0.107,0.357-0.391,0.251-0.636
							c-1.274-2.92-3.912-2.815-5.141-2.366c-0.249,0.093-0.375,0.371-0.282,0.62c0.092,0.251,0.342,0.383,0.62,0.286
							c0.085-0.033,2.694-0.954,3.915,1.846C259.226,257.999,259.481,258.112,259.714,258.04z"/>
					</g>
					<g>
						<path style="fill:#452864;" d="M241.649,256.99c0.139-0.043,0.255-0.148,0.31-0.295l0,0c0.061-0.163,0.647-1.576,2.354-1.059
							c0.254,0.078,0.527-0.067,0.603-0.322c0.078-0.256-0.067-0.526-0.322-0.603c-2.101-0.636-3.236,0.803-3.544,1.653
							c-0.091,0.251,0.039,0.528,0.29,0.619C241.444,257.021,241.551,257.021,241.649,256.99z"/>
					</g>
				</g>
			</g>
			<g>
				<path style="fill:#452864;" d="M271.435,250.236c0.028-3.955-1.076-8.202-2.329-10.592c-1.906-3.636-5.954-6.944-9.798-8.384
					c-3.991-1.495-9.451-1.326-13.677-0.777c-10.865,1.413-17.253,14.768-17.502,19.617c-0.097,1.88,0.17,3.829,1.121,5.454
					c0.95,1.625,2.666,2.873,4.548,2.928c1.703,0.049,3.328-0.87,4.466-2.138c1.138-1.268,1.85-2.858,2.435-4.458
					c0.116-0.317,0.248-0.662,0.541-0.83c0.259-0.149,0.578-0.122,0.876-0.104c2.823,0.172,5.7-0.924,7.694-2.931
					c1.335,2.835,4.778,4.496,7.827,3.775c-0.505,3.837,2.894,7.713,6.764,7.712C269.661,259.505,271.4,255.09,271.435,250.236z"/>
			</g>
			<path style="fill:#452864;" d="M267.946,297.101l-1.018,9.604c-0.317,2.941-2.251,5.453-5.023,6.505l-3.575,1.358l1.414,3.247
				c1.063,2.421,0.837,5.204-0.611,7.421l-9.978,15.351c0.023,0.079,0.045,0.158,0.057,0.238l-0.102-0.17l-0.057,0.091
				c0.011-0.045,0.023-0.091,0.034-0.124l-9.842-15.385c-1.414-2.229-1.629-5.023-0.554-7.432l1.448-3.224l-3.575-1.391
				c-2.749-1.075-4.661-3.597-4.955-6.539l-0.95-9.616c-0.226-2.195,0.486-4.276,1.81-5.849c1.109-1.324,2.67-2.274,4.48-2.625
				l4.412-0.758c-0.317,4.763,0.045,10.464,0.86,16.811c1.369,10.634,4.016,23.067,6.901,35.816
				c2.873-12.252,5.532-24.198,7.025-34.56c0.984-6.844,1.471-12.998,1.165-18.078l4.401,0.792c1.697,0.339,3.168,1.222,4.242,2.421
				C267.414,292.61,268.195,294.805,267.946,297.101z"/>
		</g>
		<g>
			<g>
				<rect x="280.924" y="182.403" style="fill:#2C60C4;" width="28.659" height="35.999"/>
				<rect x="286.138" y="188.953" style="fill:#EDF2FC;" width="18.23" height="22.899"/>
			</g>
			<g>
				<rect x="246.544" y="182.403" style="fill:#2C60C4;" width="28.659" height="35.999"/>
				<rect x="251.758" y="188.953" style="fill:#EDF2FC;" width="18.23" height="22.899"/>
			</g>
			<g>
				<rect x="212.417" y="182.403" style="fill:#2C60C4;" width="28.659" height="35.999"/>
				<rect x="217.632" y="188.953" style="fill:#EDF2FC;" width="18.23" height="22.899"/>
			</g>
		</g>
		<g>
			<path style="fill:#2C60C4;" d="M287.645,120.875v35.07h-18.1v-35.07c0-4.412,3.168-8.089,7.353-8.88l0.044-14.879l2.784-0.31
				v15.099C284.183,112.47,287.645,116.26,287.645,120.875z"/>
			<path style="fill:#FFBEA7;" d="M285.452,156.91c0,3.848-3.11,6.958-6.958,6.958c-3.839,0-6.949-3.11-6.949-6.958
				c0-0.325,0.026-0.641,0.07-0.958h13.766C285.425,156.269,285.452,156.585,285.452,156.91z"/>
		</g>
		<g>
			<path style="fill:#0098FB;" d="M395.025,403.449H104.975c-4.914,0-8.897-3.984-8.897-8.897v-3.908
				c0-4.914,3.984-8.897,8.897-8.897h290.049c4.914,0,8.897,3.983,8.897,8.897v3.908
				C403.922,399.466,399.939,403.449,395.025,403.449z"/>
			<ellipse style="fill:#0098FB;" cx="312.602" cy="392.367" rx="13.585" ry="2.328"/>
			<ellipse style="fill:#0098FB;" cx="194.803" cy="392.161" rx="13.585" ry="2.328"/>
			<ellipse style="fill:#0098FB;" cx="255.596" cy="392.161" rx="34.864" ry="4.151"/>
		</g>
		<g>
			<g>
				<ellipse style="fill:#B3B3B3;" cx="312.59" cy="368.63" rx="9.068" ry="1.18"/>
				<ellipse style="fill:#E24D73;" cx="312.59" cy="368.63" rx="9.068" ry="1.18"/>
				<path style="fill:#452864;" d="M320.373,369.235c-1.582,0.346-4.476,0.576-7.783,0.576c-3.307,0-6.201-0.229-7.783-0.576
					c0.074-0.643,3.529-1.159,7.783-1.159C316.844,368.076,320.299,368.592,320.373,369.235z"/>
				<path style="fill:#E24D73;" d="M324.616,372.579h-2.957v-3.948c0,0.222-0.468,0.43-1.286,0.605
					c-1.582,0.346-4.476,0.576-7.783,0.576c-3.307,0-6.201-0.229-7.783-0.576c-0.817-0.174-1.286-0.382-1.286-0.605v23.489
					c0,0.652,4.06,1.18,9.068,1.18c5.008,0,9.068-0.528,9.068-1.18v-2.404h2.957c2.24,0,4.062-1.822,4.062-4.062v-9.013
					C328.678,374.401,326.856,372.579,324.616,372.579z M326.288,385.654c0,0.922-0.75,1.673-1.673,1.673h-2.957v-12.358h2.957
					c0.922,0,1.673,0.75,1.673,1.673V385.654z"/>
				<g style="opacity:0.68;">
					<g>
						<path style="fill:#E3F5FF;" d="M313.237,359.837c-0.327-1.403-1.48-2.205-2.381-3.209c-1.061-1.183-0.814-2.015-0.718-3.419
							c-0.766,1.272-2.092,2.294-2.169,3.867c-0.117,2.409,2.251,3.635,2.246,6.031c-0.003,1.494-0.445,2.083-1.094,3.39
							c-0.292,0.588-0.46,1.424,0.059,2.198c0.235,0.351,0.622,0.579,1.044,0.605c0.461,0.028,0.99-0.066,1.278-0.236
							c0.766-0.453,0.507-1.365,0.269-2.03c-0.527-1.472-0.333-2.27,0.623-3.488C313.188,362.536,313.53,361.098,313.237,359.837z"
							/>
					</g>
					<g>
						<path style="fill:#E3F5FF;" d="M315.157,360.221v0.128c0.579,0.18,0.886,1.16,0.757,1.733
							c-0.218,0.968-1.174,1.16-1.867,1.669c-1.415,1.038-2.089,3.679-0.623,4.946c0.983,0.849,3.605,0.657,2.87-1.092
							c-0.27-0.643-0.761-1.062-0.625-1.847c0.15-0.864,0.937-0.947,1.286-1.674C317.748,362.436,316.609,360.949,315.157,360.221z"
							/>
					</g>
				</g>
			</g>
			<g>
				<g>
					<g>
						<g>
							<g>
								<path style="fill:#2C60C4;" d="M201.409,335.013c-1.585,3.392-3.6,6.448-4.646,10.082c-1.005,3.492-1.773,7.1-2.287,10.696
									c-0.474,3.314-0.781,6.643-1.27,9.958c-0.571,3.869-0.127,7.48-0.08,11.345c0.008,0.62-0.955,0.688-0.963,0.066
									c-0.043-3.504-0.524-6.866-0.079-10.37c0.473-3.722,0.912-7.47,1.443-11.183c0.535-3.741,1.341-7.5,2.413-11.124
									c1.048-3.544,3.051-6.576,4.603-9.899C200.807,334.021,201.672,334.45,201.409,335.013L201.409,335.013z"/>
							</g>
							<path style="fill:#2C60C4;" d="M200.775,335.254c0.314-0.756,1.353-1.584,2.186-1.593c0.975-0.011,0.948,0.905,0.491,1.546
								c-0.508,0.714-1.373,1.092-2.089,1.55c-0.743,0.476-1.288,1.262-2.07,1.619c0.091-0.626,0.614-1.451,0.944-1.981
								c0.351-0.564,0.563-1.203,0.9-1.761"/>
							<path style="fill:#2C60C4;" d="M200.119,336.794c0.636-1.255,2.154-2.499,1.934-4.073c-0.145-1.03-0.827-1.437-1.674-0.755
								c-0.642,0.517-0.75,1.372-0.74,2.139c0.012,0.98,0.063,2.182,0.269,3.117"/>
							<path style="fill:#2C60C4;" d="M198.037,339.919c-0.712-1.443-1.656-3.241-1.221-4.935c0.271-1.055,1.181-0.363,1.461,0.259
								c0.638,1.419,0.462,3.308,0.059,4.766L198.037,339.919z"/>
							<path style="fill:#2C60C4;" d="M196.547,343.357c-1.131-1.608-2.607-3.6-2.401-5.725c0.129-1.325,1.357-0.66,1.811,0.038
								c1.036,1.592,1.179,3.905,0.967,5.74L196.547,343.357z"/>
							<path style="fill:#2C60C4;" d="M194.422,351.786c-1.394-1.385-3.196-3.089-3.364-5.218c-0.105-1.327,1.221-0.887,1.79-0.279
								c1.298,1.387,1.842,3.639,1.954,5.483L194.422,351.786z"/>
							<path style="fill:#2C60C4;" d="M193.35,359.221c-2.024-1.141-4.612-2.516-5.472-4.889c-0.536-1.479,1.112-1.395,1.952-0.881
								c1.915,1.172,3.243,3.568,3.95,5.634L193.35,359.221z"/>
							<path style="fill:#2C60C4;" d="M194.908,348.752c-1.041-2.011-2.417-4.516-1.844-6.877c0.357-1.471,1.659-0.507,2.069,0.36
								c0.935,1.977,0.732,4.61,0.199,6.642L194.908,348.752z"/>
							<path style="fill:#2C60C4;" d="M198.809,340.301c1.58-0.307,3.582-0.646,4.666-2.018c0.676-0.855-0.426-1.16-1.091-1.006
								c-1.515,0.352-2.911,1.637-3.828,2.84L198.809,340.301z"/>
							<path style="fill:#2C60C4;" d="M195.115,347.981c1.625-0.845,3.699-1.86,4.44-3.706c0.461-1.151-0.839-1.128-1.514-0.745
								c-1.54,0.873-2.649,2.725-3.26,4.333L195.115,347.981z"/>
							<path style="fill:#2C60C4;" d="M194.884,353.56c1.742-0.906,3.967-1.994,4.76-3.974c0.495-1.234-0.9-1.21-1.624-0.799
								c-1.651,0.936-2.84,2.921-3.496,4.646L194.884,353.56z"/>
							<path style="fill:#2C60C4;" d="M194.064,358.769c2.252-1.283,5.127-2.828,6.182-5.579c0.657-1.715-1.134-1.656-2.07-1.076
								c-2.136,1.323-3.698,4.09-4.57,6.486L194.064,358.769z"/>
							<path style="fill:#2C60C4;" d="M193.992,355.423c-1.145-0.573-2.342-0.883-3.28-1.798c-0.815-0.795-1.172-1.887-1.227-3.003
								c-0.024-0.492-0.122-1.086,0.225-1.505c0.487-0.587,0.816,0.218,1.055,0.673c0.507,0.969,1.08,1.927,1.687,2.831
								c0.335,0.499,0.634,0.978,0.914,1.489c0.185,0.338,0.698,0.871,0.755,1.163"/>
							<path style="fill:#2C60C4;" d="M198.66,356.524c-1.004,0.983-3.979,4.432-5.224,5.652c-0.067,0.505-0.145,1.01-0.225,1.52
								c2.531-1.466,6.23-4.378,6.921-5.447c0.298-0.461,0.78-1.563,0.541-2.091C200.24,355.206,199.099,356.095,198.66,356.524z"/>
							<path style="fill:#2C60C4;" d="M200.53,364.333c-1.479,0.895-6.008,4.187-7.842,5.297c-0.222,0.586-0.458,1.169-0.697,1.756
								c3.441-1.044,8.688-3.489,9.816-4.574c0.487-0.468,1.373-1.652,1.235-2.351C202.79,363.199,201.175,363.943,200.53,364.333z"
								/>
							<path style="fill:#2C60C4;" d="M192.832,364.729c-0.685-0.39-3.632-0.68-5.877-4.241c-0.319-0.505-0.696-1.207-0.402-1.802
								c0.409-0.826,1.126-0.168,1.567,0.26c0.871,0.845,3.942,4.282,4.816,5.036"/>
							<path style="fill:#2C60C4;" d="M192.587,367.804c0.784-0.411,1.763-0.615,2.596-1.019c0.893-0.433,5.298-3.411,6.26-4.801
								c0.418-0.603,1.467-1.533,0.964-2.317c-0.486-0.758-1.643-0.412-2.302-0.099c-1.53,0.729-6.658,6.372-7.775,8.002"/>
							<path style="fill:#2C60C4;" d="M192.29,368.51c-3.393-0.669-8.011-4.355-8.07-5.12c-0.128-1.659,2.22-1.128,3.084-0.603
								c1.938,1.176,5.112,5.268,4.9,5.574"/>
						</g>
					</g>
					<g>
						<g>
							<g>
								<g>
									<path style="fill:#2C60C4;" d="M215.414,345.143c-2.596,2.698-5.491,4.939-7.654,8.04c-2.079,2.98-3.972,6.146-5.621,9.383
										c-1.52,2.983-2.886,6.035-4.419,9.013c-1.791,3.477-2.537,7.038-3.742,10.711c-0.193,0.589-1.127,0.343-0.933-0.248
										c1.092-3.33,1.723-6.667,3.277-9.839c1.651-3.37,3.277-6.775,4.979-10.116c1.715-3.367,3.693-6.664,5.878-9.748
										c2.137-3.015,5.012-5.238,7.555-7.88C215.165,344.01,215.845,344.695,215.414,345.143L215.414,345.143z"/>
								</g>
								<path style="fill:#2C60C4;" d="M214.736,345.166c0.541-0.614,1.792-1.062,2.583-0.802c0.926,0.305,0.605,1.163-0.035,1.622
									c-0.712,0.511-1.652,0.589-2.478,0.792c-0.857,0.21-1.627,0.778-2.482,0.863c0.288-0.563,1.049-1.175,1.533-1.57
									c0.515-0.42,0.921-0.956,1.421-1.376"/>
								<path style="fill:#2C60C4;" d="M213.618,346.411c1.007-0.982,2.846-1.669,3.146-3.23c0.196-1.021-0.318-1.627-1.34-1.256
									c-0.775,0.282-1.153,1.056-1.392,1.785c-0.305,0.931-0.645,2.085-0.753,3.037"/>
								<path style="fill:#2C60C4;" d="M210.638,348.696c-0.208-1.596-0.52-3.602,0.439-5.064c0.597-0.912,1.235,0.038,1.299,0.717
									c0.145,1.549-0.632,3.28-1.484,4.53L210.638,348.696z"/>
								<path style="fill:#2C60C4;" d="M208.117,351.468c-0.551-1.887-1.304-4.249-0.422-6.194c0.55-1.212,1.497-0.187,1.702,0.621
									c0.466,1.842-0.147,4.076-0.94,5.744L208.117,351.468z"/>
								<path style="fill:#2C60C4;" d="M203.382,358.759c-0.872-1.761-2.026-3.956-1.497-6.025c0.33-1.289,1.442-0.445,1.784,0.314
									c0.78,1.732,0.568,4.039,0.078,5.82L203.382,358.759z"/>
								<path style="fill:#2C60C4;" d="M199.965,365.448c-1.547-1.733-3.551-3.871-3.599-6.395c-0.03-1.573,1.503-0.96,2.132-0.202
									c1.434,1.728,1.916,4.424,1.918,6.608L199.965,365.448z"/>
								<path style="fill:#2C60C4;" d="M204.823,356.044c-0.335-2.24-0.828-5.055,0.477-7.103c0.813-1.277,1.734,0.057,1.842,1.01
									c0.246,2.173-0.797,4.599-1.958,6.35L204.823,356.044z"/>
								<path style="fill:#2C60C4;" d="M211.245,349.307c1.594,0.219,3.598,0.546,5.067-0.402c0.916-0.591-0.028-1.235-0.707-1.304
									c-1.548-0.156-3.284,0.608-4.54,1.451L211.245,349.307z"/>
								<path style="fill:#2C60C4;" d="M205.268,355.381c1.81-0.274,4.102-0.565,5.399-2.073c0.808-0.94-0.43-1.339-1.192-1.194
									c-1.739,0.329-3.387,1.723-4.486,3.047L205.268,355.381z"/>
								<path style="fill:#2C60C4;" d="M203.247,360.587c1.941-0.294,4.398-0.605,5.789-2.223c0.867-1.008-0.461-1.435-1.278-1.281
									c-1.865,0.352-3.632,1.847-4.81,3.267L203.247,360.587z"/>
								<path style="fill:#2C60C4;" d="M200.787,365.251c2.546-0.487,5.766-1.019,7.653-3.282c1.176-1.41-0.538-1.934-1.611-1.687
									c-2.449,0.562-4.821,2.675-6.421,4.661L200.787,365.251z"/>
								<path style="fill:#2C60C4;" d="M201.8,362.061c-0.898-0.912-1.931-1.592-2.523-2.761c-0.515-1.016-0.5-2.165-0.191-3.239
									c0.136-0.473,0.236-1.067,0.699-1.351c0.65-0.398,0.702,0.47,0.781,0.978c0.167,1.081,0.399,2.172,0.681,3.224
									c0.156,0.581,0.284,1.13,0.384,1.705c0.066,0.379,0.379,1.05,0.339,1.344"/>
								<path style="fill:#2C60C4;" d="M205.862,364.612c-1.268,0.606-5.198,2.909-6.77,3.661c-0.227,0.456-0.464,0.909-0.704,1.366
									c2.868-0.57,7.31-2.13,8.309-2.918c0.431-0.34,1.243-1.227,1.187-1.804C207.782,363.875,206.416,364.348,205.862,364.612z"
									/>
								<path style="fill:#2C60C4;" d="M205.108,372.606c-1.688,0.369-7.039,2.021-9.133,2.479c-0.4,0.483-0.811,0.958-1.227,1.437
									c3.594,0.124,9.349-0.495,10.767-1.157c0.612-0.285,1.833-1.12,1.928-1.826
									C207.614,372.263,205.845,372.445,205.108,372.606z"/>
								<path style="fill:#2C60C4;" d="M197.695,370.493c-0.522-0.59-3.217-1.818-4.191-5.913c-0.138-0.581-0.269-1.367,0.202-1.835
									c0.654-0.65,1.12,0.204,1.399,0.752c0.551,1.081,2.347,5.326,2.93,6.322"/>
								<path style="fill:#2C60C4;" d="M196.469,373.324c0.874-0.136,1.867-0.012,2.786-0.126c0.985-0.121,6.116-1.517,7.475-2.521
									c0.59-0.436,1.884-0.976,1.661-1.882c-0.215-0.874-1.422-0.921-2.147-0.837c-1.683,0.195-8.36,3.878-9.943,5.06"/>
								<path style="fill:#2C60C4;" d="M195.961,373.897c-2.995-1.73-6.174-6.71-5.982-7.453c0.415-1.611,2.465-0.35,3.113,0.426
									c1.454,1.739,3.135,6.637,2.836,6.858"/>
							</g>
						</g>
						<g>
							<g>
								<g>
									<path style="fill:#2C60C4;" d="M215.414,345.143c-2.596,2.698-5.491,4.939-7.654,8.04c-2.079,2.98-3.972,6.146-5.621,9.383
										c-1.52,2.983-2.886,6.035-4.419,9.013c-1.791,3.477-2.537,7.038-3.742,10.711c-0.193,0.589-1.127,0.343-0.933-0.248
										c1.092-3.33,1.723-6.667,3.277-9.839c1.651-3.37,3.277-6.775,4.979-10.116c1.715-3.367,3.693-6.664,5.878-9.748
										c2.137-3.015,5.012-5.238,7.555-7.88C215.165,344.01,215.845,344.695,215.414,345.143L215.414,345.143z"/>
								</g>
								<path style="fill:#2C60C4;" d="M214.736,345.166c0.541-0.614,1.792-1.062,2.583-0.802c0.926,0.305,0.605,1.163-0.035,1.622
									c-0.712,0.511-1.652,0.589-2.478,0.792c-0.857,0.21-1.627,0.778-2.482,0.863c0.288-0.563,1.049-1.175,1.533-1.57
									c0.515-0.42,0.921-0.956,1.421-1.376"/>
								<path style="fill:#2C60C4;" d="M213.618,346.411c1.007-0.982,2.846-1.669,3.146-3.23c0.196-1.021-0.318-1.627-1.34-1.256
									c-0.775,0.282-1.153,1.056-1.392,1.785c-0.305,0.931-0.645,2.085-0.753,3.037"/>
								<path style="fill:#2C60C4;" d="M210.638,348.696c-0.208-1.596-0.52-3.602,0.439-5.064c0.597-0.912,1.235,0.038,1.299,0.717
									c0.145,1.549-0.632,3.28-1.484,4.53L210.638,348.696z"/>
								<path style="fill:#2C60C4;" d="M208.117,351.468c-0.551-1.887-1.304-4.249-0.422-6.194c0.55-1.212,1.497-0.187,1.702,0.621
									c0.466,1.842-0.147,4.076-0.94,5.744L208.117,351.468z"/>
								<path style="fill:#2C60C4;" d="M203.382,358.759c-0.872-1.761-2.026-3.956-1.497-6.025c0.33-1.289,1.442-0.445,1.784,0.314
									c0.78,1.732,0.568,4.039,0.078,5.82L203.382,358.759z"/>
								<path style="fill:#2C60C4;" d="M199.965,365.448c-1.547-1.733-3.551-3.871-3.599-6.395c-0.03-1.573,1.503-0.96,2.132-0.202
									c1.434,1.728,1.916,4.424,1.918,6.608L199.965,365.448z"/>
								<path style="fill:#2C60C4;" d="M204.823,356.044c-0.335-2.24-0.828-5.055,0.477-7.103c0.813-1.277,1.734,0.057,1.842,1.01
									c0.246,2.173-0.797,4.599-1.958,6.35L204.823,356.044z"/>
								<path style="fill:#2C60C4;" d="M211.245,349.307c1.594,0.219,3.598,0.546,5.067-0.402c0.916-0.591-0.028-1.235-0.707-1.304
									c-1.548-0.156-3.284,0.608-4.54,1.451L211.245,349.307z"/>
								<path style="fill:#2C60C4;" d="M205.268,355.381c1.81-0.274,4.102-0.565,5.399-2.073c0.808-0.94-0.43-1.339-1.192-1.194
									c-1.739,0.329-3.387,1.723-4.486,3.047L205.268,355.381z"/>
								<path style="fill:#2C60C4;" d="M203.247,360.587c1.941-0.294,4.398-0.605,5.789-2.223c0.867-1.008-0.461-1.435-1.278-1.281
									c-1.865,0.352-3.632,1.847-4.81,3.267L203.247,360.587z"/>
								<path style="fill:#2C60C4;" d="M200.787,365.251c2.546-0.487,5.766-1.019,7.653-3.282c1.176-1.41-0.538-1.934-1.611-1.687
									c-2.449,0.562-4.821,2.675-6.421,4.661L200.787,365.251z"/>
								<path style="fill:#2C60C4;" d="M201.8,362.061c-0.898-0.912-1.931-1.592-2.523-2.761c-0.515-1.016-0.5-2.165-0.191-3.239
									c0.136-0.473,0.236-1.067,0.699-1.351c0.65-0.398,0.702,0.47,0.781,0.978c0.167,1.081,0.399,2.172,0.681,3.224
									c0.156,0.581,0.284,1.13,0.384,1.705c0.066,0.379,0.379,1.05,0.339,1.344"/>
								<path style="fill:#2C60C4;" d="M205.862,364.612c-1.268,0.606-5.198,2.909-6.77,3.661c-0.227,0.456-0.464,0.909-0.704,1.366
									c2.868-0.57,7.31-2.13,8.309-2.918c0.431-0.34,1.243-1.227,1.187-1.804C207.782,363.875,206.416,364.348,205.862,364.612z"
									/>
								<path style="fill:#2C60C4;" d="M205.108,372.606c-1.688,0.369-7.039,2.021-9.133,2.479c-0.4,0.483-0.811,0.958-1.227,1.437
									c3.594,0.124,9.349-0.495,10.767-1.157c0.612-0.285,1.833-1.12,1.928-1.826
									C207.614,372.263,205.845,372.445,205.108,372.606z"/>
								<path style="fill:#2C60C4;" d="M197.695,370.493c-0.522-0.59-3.217-1.818-4.191-5.913c-0.138-0.581-0.269-1.367,0.202-1.835
									c0.654-0.65,1.12,0.204,1.399,0.752c0.551,1.081,2.347,5.326,2.93,6.322"/>
								<path style="fill:#2C60C4;" d="M196.469,373.324c0.874-0.136,1.867-0.012,2.786-0.126c0.985-0.121,6.116-1.517,7.475-2.521
									c0.59-0.436,1.884-0.976,1.661-1.882c-0.215-0.874-1.422-0.921-2.147-0.837c-1.683,0.195-8.36,3.878-9.943,5.06"/>
								<path style="fill:#2C60C4;" d="M195.961,373.897c-2.995-1.73-6.174-6.71-5.982-7.453c0.415-1.611,2.465-0.35,3.113,0.426
									c1.454,1.739,3.135,6.637,2.836,6.858"/>
							</g>
						</g>
					</g>
					<g>
						<g>
							<g>
								<g>
									<path style="fill:#2C60C4;" d="M183.082,335.013c1.585,3.392,3.6,6.448,4.646,10.082c1.005,3.492,1.773,7.1,2.288,10.696
										c0.474,3.314,0.781,6.643,1.27,9.958c0.571,3.869,0.127,7.48,0.08,11.345c-0.008,0.62,0.955,0.688,0.963,0.066
										c0.043-3.504,0.524-6.866,0.078-10.37c-0.473-3.722-0.912-7.47-1.443-11.183c-0.535-3.741-1.341-7.5-2.413-11.124
										c-1.048-3.544-3.051-6.576-4.603-9.899C183.684,334.021,182.819,334.45,183.082,335.013L183.082,335.013z"/>
								</g>
								<path style="fill:#2C60C4;" d="M183.716,335.254c-0.314-0.756-1.353-1.584-2.186-1.593
									c-0.975-0.011-0.948,0.905-0.491,1.546c0.508,0.714,1.373,1.092,2.089,1.55c0.743,0.476,1.288,1.262,2.07,1.619
									c-0.091-0.626-0.614-1.451-0.944-1.981c-0.351-0.564-0.563-1.203-0.9-1.761"/>
								<path style="fill:#2C60C4;" d="M184.372,336.794c-0.636-1.255-2.154-2.499-1.933-4.073c0.145-1.03,0.827-1.437,1.674-0.755
									c0.642,0.517,0.75,1.372,0.74,2.139c-0.012,0.98-0.063,2.182-0.269,3.117"/>
								<path style="fill:#2C60C4;" d="M186.453,339.919c0.712-1.443,1.656-3.241,1.221-4.935c-0.271-1.055-1.181-0.363-1.46,0.259
									c-0.638,1.419-0.462,3.308-0.059,4.766L186.453,339.919z"/>
								<path style="fill:#2C60C4;" d="M187.943,343.357c1.131-1.608,2.607-3.6,2.401-5.725c-0.129-1.325-1.357-0.66-1.811,0.038
									c-1.036,1.592-1.179,3.905-0.967,5.74L187.943,343.357z"/>
								<path style="fill:#2C60C4;" d="M190.069,351.786c1.394-1.385,3.196-3.089,3.364-5.218c0.105-1.327-1.221-0.887-1.79-0.279
									c-1.298,1.387-1.842,3.639-1.954,5.483L190.069,351.786z"/>
								<path style="fill:#2C60C4;" d="M191.141,359.221c2.024-1.141,4.612-2.516,5.472-4.889c0.536-1.479-1.112-1.395-1.952-0.881
									c-1.915,1.172-3.243,3.568-3.95,5.634L191.141,359.221z"/>
								<path style="fill:#2C60C4;" d="M189.583,348.752c1.041-2.011,2.417-4.516,1.844-6.877c-0.357-1.471-1.659-0.507-2.069,0.36
									c-0.935,1.977-0.732,4.61-0.199,6.642L189.583,348.752z"/>
								<path style="fill:#2C60C4;" d="M185.682,340.301c-1.58-0.307-3.582-0.646-4.666-2.018c-0.676-0.855,0.426-1.16,1.091-1.006
									c1.515,0.352,2.911,1.637,3.828,2.84L185.682,340.301z"/>
								<path style="fill:#2C60C4;" d="M189.375,347.981c-1.625-0.845-3.699-1.86-4.44-3.706c-0.461-1.151,0.839-1.128,1.514-0.745
									c1.54,0.873,2.649,2.725,3.26,4.333L189.375,347.981z"/>
								<path style="fill:#2C60C4;" d="M189.606,353.56c-1.742-0.906-3.966-1.994-4.76-3.974c-0.495-1.234,0.9-1.21,1.623-0.799
									c1.651,0.936,2.84,2.921,3.496,4.646L189.606,353.56z"/>
								<path style="fill:#2C60C4;" d="M190.427,358.769c-2.252-1.283-5.127-2.828-6.182-5.579c-0.657-1.715,1.134-1.656,2.07-1.076
									c2.136,1.323,3.698,4.09,4.57,6.486L190.427,358.769z"/>
								<path style="fill:#2C60C4;" d="M190.499,355.423c1.145-0.573,2.342-0.883,3.28-1.798c0.815-0.795,1.172-1.887,1.227-3.003
									c0.024-0.492,0.122-1.086-0.225-1.505c-0.487-0.587-0.816,0.218-1.055,0.673c-0.507,0.969-1.08,1.927-1.687,2.831
									c-0.335,0.499-0.634,0.978-0.914,1.489c-0.185,0.338-0.698,0.871-0.755,1.163"/>
								<path style="fill:#2C60C4;" d="M185.831,356.524c1.004,0.983,3.979,4.432,5.224,5.652c0.067,0.505,0.145,1.01,0.225,1.52
									c-2.531-1.466-6.23-4.378-6.921-5.447c-0.298-0.461-0.78-1.563-0.541-2.091
									C184.251,355.206,185.392,356.095,185.831,356.524z"/>
								<path style="fill:#2C60C4;" d="M183.961,364.333c1.479,0.895,6.008,4.187,7.842,5.297c0.222,0.586,0.458,1.169,0.697,1.756
									c-3.441-1.044-8.688-3.489-9.816-4.574c-0.487-0.468-1.373-1.652-1.235-2.351
									C181.7,363.199,183.315,363.943,183.961,364.333z"/>
								<path style="fill:#2C60C4;" d="M191.659,364.729c0.685-0.39,3.632-0.68,5.877-4.241c0.319-0.505,0.696-1.207,0.402-1.802
									c-0.409-0.826-1.126-0.168-1.567,0.26c-0.871,0.845-3.942,4.282-4.816,5.036"/>
								<path style="fill:#2C60C4;" d="M191.904,367.804c-0.784-0.411-1.763-0.615-2.596-1.019c-0.893-0.433-5.298-3.411-6.26-4.801
									c-0.417-0.603-1.467-1.533-0.964-2.317c0.486-0.758,1.643-0.412,2.302-0.099c1.53,0.729,6.658,6.372,7.775,8.002"/>
								<path style="fill:#2C60C4;" d="M192.2,368.51c3.393-0.669,8.011-4.355,8.07-5.12c0.128-1.659-2.22-1.128-3.084-0.603
									c-1.938,1.176-5.112,5.268-4.9,5.574"/>
							</g>
						</g>
						<g>
							<g>
								<g>
									<path style="fill:#2C60C4;" d="M183.082,335.013c1.585,3.392,3.6,6.448,4.646,10.082c1.005,3.492,1.773,7.1,2.288,10.696
										c0.474,3.314,0.781,6.643,1.27,9.958c0.571,3.869,0.127,7.48,0.08,11.345c-0.008,0.62,0.955,0.688,0.963,0.066
										c0.043-3.504,0.524-6.866,0.078-10.37c-0.473-3.722-0.912-7.47-1.443-11.183c-0.535-3.741-1.341-7.5-2.413-11.124
										c-1.048-3.544-3.051-6.576-4.603-9.899C183.684,334.021,182.819,334.45,183.082,335.013L183.082,335.013z"/>
								</g>
								<path style="fill:#2C60C4;" d="M183.716,335.254c-0.314-0.756-1.353-1.584-2.186-1.593
									c-0.975-0.011-0.948,0.905-0.491,1.546c0.508,0.714,1.373,1.092,2.089,1.55c0.743,0.476,1.288,1.262,2.07,1.619
									c-0.091-0.626-0.614-1.451-0.944-1.981c-0.351-0.564-0.563-1.203-0.9-1.761"/>
								<path style="fill:#2C60C4;" d="M184.372,336.794c-0.636-1.255-2.154-2.499-1.933-4.073c0.145-1.03,0.827-1.437,1.674-0.755
									c0.642,0.517,0.75,1.372,0.74,2.139c-0.012,0.98-0.063,2.182-0.269,3.117"/>
								<path style="fill:#2C60C4;" d="M186.453,339.919c0.712-1.443,1.656-3.241,1.221-4.935c-0.271-1.055-1.181-0.363-1.46,0.259
									c-0.638,1.419-0.462,3.308-0.059,4.766L186.453,339.919z"/>
								<path style="fill:#2C60C4;" d="M187.943,343.357c1.131-1.608,2.607-3.6,2.401-5.725c-0.129-1.325-1.357-0.66-1.811,0.038
									c-1.036,1.592-1.179,3.905-0.967,5.74L187.943,343.357z"/>
								<path style="fill:#2C60C4;" d="M190.069,351.786c1.394-1.385,3.196-3.089,3.364-5.218c0.105-1.327-1.221-0.887-1.79-0.279
									c-1.298,1.387-1.842,3.639-1.954,5.483L190.069,351.786z"/>
								<path style="fill:#2C60C4;" d="M191.141,359.221c2.024-1.141,4.612-2.516,5.472-4.889c0.536-1.479-1.112-1.395-1.952-0.881
									c-1.915,1.172-3.243,3.568-3.95,5.634L191.141,359.221z"/>
								<path style="fill:#2C60C4;" d="M189.583,348.752c1.041-2.011,2.417-4.516,1.844-6.877c-0.357-1.471-1.659-0.507-2.069,0.36
									c-0.935,1.977-0.732,4.61-0.199,6.642L189.583,348.752z"/>
								<path style="fill:#2C60C4;" d="M185.682,340.301c-1.58-0.307-3.582-0.646-4.666-2.018c-0.676-0.855,0.426-1.16,1.091-1.006
									c1.515,0.352,2.911,1.637,3.828,2.84L185.682,340.301z"/>
								<path style="fill:#2C60C4;" d="M189.375,347.981c-1.625-0.845-3.699-1.86-4.44-3.706c-0.461-1.151,0.839-1.128,1.514-0.745
									c1.54,0.873,2.649,2.725,3.26,4.333L189.375,347.981z"/>
								<path style="fill:#2C60C4;" d="M189.606,353.56c-1.742-0.906-3.966-1.994-4.76-3.974c-0.495-1.234,0.9-1.21,1.623-0.799
									c1.651,0.936,2.84,2.921,3.496,4.646L189.606,353.56z"/>
								<path style="fill:#2C60C4;" d="M190.427,358.769c-2.252-1.283-5.127-2.828-6.182-5.579c-0.657-1.715,1.134-1.656,2.07-1.076
									c2.136,1.323,3.698,4.09,4.57,6.486L190.427,358.769z"/>
								<path style="fill:#2C60C4;" d="M190.499,355.423c1.145-0.573,2.342-0.883,3.28-1.798c0.815-0.795,1.172-1.887,1.227-3.003
									c0.024-0.492,0.122-1.086-0.225-1.505c-0.487-0.587-0.816,0.218-1.055,0.673c-0.507,0.969-1.08,1.927-1.687,2.831
									c-0.335,0.499-0.634,0.978-0.914,1.489c-0.185,0.338-0.698,0.871-0.755,1.163"/>
								<path style="fill:#2C60C4;" d="M185.831,356.524c1.004,0.983,3.979,4.432,5.224,5.652c0.067,0.505,0.145,1.01,0.225,1.52
									c-2.531-1.466-6.23-4.378-6.921-5.447c-0.298-0.461-0.78-1.563-0.541-2.091
									C184.251,355.206,185.392,356.095,185.831,356.524z"/>
								<path style="fill:#2C60C4;" d="M183.961,364.333c1.479,0.895,6.008,4.187,7.842,5.297c0.222,0.586,0.458,1.169,0.697,1.756
									c-3.441-1.044-8.688-3.489-9.816-4.574c-0.487-0.468-1.373-1.652-1.235-2.351
									C181.7,363.199,183.315,363.943,183.961,364.333z"/>
								<path style="fill:#2C60C4;" d="M191.659,364.729c0.685-0.39,3.632-0.68,5.877-4.241c0.319-0.505,0.696-1.207,0.402-1.802
									c-0.409-0.826-1.126-0.168-1.567,0.26c-0.871,0.845-3.942,4.282-4.816,5.036"/>
								<path style="fill:#2C60C4;" d="M191.904,367.804c-0.784-0.411-1.763-0.615-2.596-1.019c-0.893-0.433-5.298-3.411-6.26-4.801
									c-0.417-0.603-1.467-1.533-0.964-2.317c0.486-0.758,1.643-0.412,2.302-0.099c1.53,0.729,6.658,6.372,7.775,8.002"/>
								<path style="fill:#2C60C4;" d="M192.2,368.51c3.393-0.669,8.011-4.355,8.07-5.12c0.128-1.659-2.22-1.128-3.084-0.603
									c-1.938,1.176-5.112,5.268-4.9,5.574"/>
							</g>
						</g>
					</g>
					<g>
						<g>
							<g>
								<path style="fill:#2C60C4;" d="M171.392,345.143c2.596,2.698,5.491,4.939,7.654,8.04c2.079,2.98,3.972,6.146,5.621,9.383
									c1.519,2.983,2.885,6.035,4.419,9.013c1.79,3.477,2.537,7.038,3.742,10.711c0.193,0.589,1.127,0.343,0.933-0.248
									c-1.092-3.33-1.723-6.667-3.277-9.839c-1.651-3.37-3.277-6.775-4.979-10.116c-1.715-3.367-3.693-6.664-5.878-9.748
									c-2.137-3.015-5.012-5.238-7.555-7.88C171.641,344.01,170.961,344.695,171.392,345.143L171.392,345.143z"/>
							</g>
							<path style="fill:#2C60C4;" d="M172.07,345.166c-0.541-0.614-1.792-1.062-2.583-0.802c-0.926,0.305-0.604,1.163,0.035,1.622
								c0.712,0.511,1.652,0.589,2.478,0.792c0.857,0.21,1.627,0.778,2.482,0.863c-0.288-0.563-1.049-1.175-1.533-1.57
								c-0.515-0.42-0.921-0.956-1.421-1.376"/>
							<path style="fill:#2C60C4;" d="M173.188,346.411c-1.008-0.982-2.846-1.669-3.146-3.23c-0.196-1.021,0.319-1.627,1.34-1.256
								c0.775,0.282,1.153,1.056,1.392,1.785c0.305,0.931,0.646,2.085,0.753,3.037"/>
							<path style="fill:#2C60C4;" d="M176.168,348.696c0.208-1.596,0.52-3.602-0.439-5.064c-0.598-0.912-1.235,0.038-1.299,0.717
								c-0.145,1.549,0.632,3.28,1.484,4.53L176.168,348.696z"/>
							<path style="fill:#2C60C4;" d="M178.689,351.468c0.551-1.887,1.304-4.249,0.422-6.194c-0.55-1.212-1.498-0.187-1.702,0.621
								c-0.466,1.842,0.146,4.076,0.94,5.744L178.689,351.468z"/>
							<path style="fill:#2C60C4;" d="M183.424,358.759c0.872-1.761,2.026-3.956,1.497-6.025c-0.33-1.289-1.442-0.445-1.784,0.314
								c-0.78,1.732-0.567,4.039-0.078,5.82L183.424,358.759z"/>
							<path style="fill:#2C60C4;" d="M186.841,365.448c1.547-1.733,3.552-3.871,3.599-6.395c0.029-1.573-1.503-0.96-2.132-0.202
								c-1.433,1.728-1.916,4.424-1.917,6.608L186.841,365.448z"/>
							<path style="fill:#2C60C4;" d="M181.983,356.044c0.335-2.24,0.828-5.055-0.477-7.103c-0.813-1.277-1.734,0.057-1.842,1.01
								c-0.246,2.173,0.797,4.599,1.958,6.35L181.983,356.044z"/>
							<path style="fill:#2C60C4;" d="M175.561,349.307c-1.595,0.219-3.598,0.546-5.067-0.402c-0.916-0.591,0.029-1.235,0.707-1.304
								c1.548-0.156,3.284,0.608,4.54,1.451L175.561,349.307z"/>
							<path style="fill:#2C60C4;" d="M181.538,355.381c-1.811-0.274-4.102-0.565-5.399-2.073c-0.809-0.94,0.43-1.339,1.192-1.194
								c1.739,0.329,3.387,1.723,4.486,3.047L181.538,355.381z"/>
							<path style="fill:#2C60C4;" d="M183.559,360.587c-1.941-0.294-4.398-0.605-5.789-2.223c-0.867-1.008,0.461-1.435,1.278-1.281
								c1.864,0.352,3.631,1.847,4.809,3.267L183.559,360.587z"/>
							<path style="fill:#2C60C4;" d="M186.019,365.251c-2.546-0.487-5.766-1.019-7.653-3.282c-1.176-1.41,0.538-1.934,1.611-1.687
								c2.449,0.562,4.821,2.675,6.421,4.661L186.019,365.251z"/>
							<path style="fill:#2C60C4;" d="M185.006,362.061c0.898-0.912,1.931-1.592,2.523-2.761c0.514-1.016,0.5-2.165,0.191-3.239
								c-0.136-0.473-0.236-1.067-0.699-1.351c-0.65-0.398-0.702,0.47-0.781,0.978c-0.167,1.081-0.399,2.172-0.681,3.224
								c-0.156,0.581-0.284,1.13-0.384,1.705c-0.066,0.379-0.379,1.05-0.338,1.344"/>
							<path style="fill:#2C60C4;" d="M180.944,364.612c1.268,0.606,5.197,2.909,6.77,3.661c0.227,0.456,0.464,0.909,0.705,1.366
								c-2.868-0.57-7.31-2.13-8.31-2.918c-0.431-0.34-1.243-1.227-1.187-1.804C179.023,363.875,180.39,364.348,180.944,364.612z"/>
							<path style="fill:#2C60C4;" d="M181.698,372.606c1.688,0.369,7.039,2.021,9.133,2.479c0.4,0.483,0.811,0.958,1.227,1.437
								c-3.594,0.124-9.349-0.495-10.767-1.157c-0.612-0.285-1.833-1.12-1.928-1.826
								C179.192,372.263,180.961,372.445,181.698,372.606z"/>
							<path style="fill:#2C60C4;" d="M189.111,370.493c0.522-0.59,3.217-1.818,4.191-5.913c0.138-0.581,0.269-1.367-0.202-1.835
								c-0.654-0.65-1.12,0.204-1.399,0.752c-0.551,1.081-2.347,5.326-2.93,6.322"/>
							<path style="fill:#2C60C4;" d="M190.337,373.324c-0.874-0.136-1.867-0.012-2.786-0.126c-0.985-0.121-6.116-1.517-7.475-2.521
								c-0.59-0.436-1.884-0.976-1.661-1.882c0.215-0.874,1.422-0.921,2.147-0.837c1.683,0.195,8.36,3.878,9.943,5.06"/>
							<path style="fill:#2C60C4;" d="M190.845,373.897c2.995-1.73,6.174-6.71,5.982-7.453c-0.415-1.611-2.465-0.35-3.113,0.426
								c-1.454,1.739-3.136,6.637-2.836,6.858"/>
						</g>
					</g>
				</g>
				<g>
					<g>
						<path style="fill:#E24D73;" d="M196.16,390.724l-4.425,0.018c-6.043,0.024-11.007-4.9-11.032-10.943l0,0
							c-0.008-1.866,1.513-3.399,3.379-3.407l19.614-0.079c1.866-0.008,3.399,1.513,3.406,3.379l0,0
							C207.127,385.736,202.203,390.7,196.16,390.724z"/>
						<path style="fill:#452864;" d="M199.389,392.119l-10.209,0.041c-0.539,0.002-0.982-0.437-0.984-0.976l0,0
							c-0.002-0.539,0.437-0.982,0.976-0.984l10.209-0.041c0.539-0.002,0.982,0.437,0.985,0.976l0,0
							C200.368,391.674,199.929,392.117,199.389,392.119z"/>
					</g>
				</g>
			</g>
			<g>
				<path style="fill:#452864;" d="M288.601,348.381h-66.825c-2.15,0-3.799,1.911-3.482,4.038l5.148,34.638
					c-1.274,0.312-2.23,1.459-2.23,2.826l0,0c0,1.605,1.313,2.918,2.918,2.918h61.697c1.605,0,2.918-1.313,2.918-2.918l0,0
					c0-1.565-1.251-2.842-2.8-2.906l6.122-34.46C292.45,350.36,290.791,348.381,288.601,348.381z"/>
				
					<linearGradient id="SVGID_00000009578369263843822140000012230530090486468741_" gradientUnits="userSpaceOnUse" x1="252.207" y1="370.3201" x2="260.624" y2="370.3201">
					<stop  offset="0.002" style="stop-color:#D6E1F4"/>
					<stop  offset="0.5256" style="stop-color:#EEF2FA"/>
					<stop  offset="1" style="stop-color:#FFFFFF"/>
				</linearGradient>
				<path style="fill:url(#SVGID_00000009578369263843822140000012230530090486468741_);" d="M259.391,367.344
					c1.644,1.644,1.644,4.308,0,5.952c-1.643,1.644-4.308,1.644-5.952,0c-1.644-1.644-1.644-4.308,0-5.952
					C255.083,365.701,257.748,365.701,259.391,367.344z"/>
			</g>
		</g>
	</g>
</g>

</svg>
