<svg width="20" height="20" viewBox="0 0 20 20" fill="none" xmlns="http://www.w3.org/2000/svg">
<path fill-rule="evenodd" clip-rule="evenodd" d="M2 0H18C19.1046 0 20 0.89543 20 2V18C20 19.1046 19.1046 20 18 20H2C0.89543 20 0 19.1046 0 18V2C0 0.89543 0.89543 0 2 0ZM2 2V18H18V2H2ZM9.45215 7.45215C9.93525 7.15826 10.4823 7 11 7H12C13.394 7 15 8.14718 15 10V14H13V10C13 9.42425 12.406 9 12 9H11C10.594 9 10 9.42425 10 10V14H8V7H9L9.45215 7.45215ZM6 6C5.44772 6 5 5.55228 5 5C5 4.44772 5.44772 4 6 4C6.55228 4 7 4.44772 7 5C7 5.55228 6.55228 6 6 6ZM7 14H5V7H7V14Z" fill="#00101B"/>
</svg>
