<svg width="20" height="19" viewBox="0 0 20 19" fill="none" xmlns="http://www.w3.org/2000/svg">
<path fill-rule="evenodd" clip-rule="evenodd" d="M18.6221 2.44301L20 2.60393L19.3806 3.84528C19.0786 4.45063 18.7762 5.05599 18.4735 5.66134C18.4376 5.78956 18.3746 5.90196 18.2813 6.0483C18.2423 6.10945 18.1091 6.30395 18.1029 6.31329C18.0678 6.36602 18.0418 6.4076 18.023 6.44092V8.76731C18.023 14.7203 12.262 18.5031 6.82132 18.5031C5.70803 18.5031 4.86218 18.4498 3.89363 18.2384C2.29972 17.8906 1.11353 17.1992 0.570727 15.9908L0.0118929 14.7467L1.36999 14.6218C2.59859 14.5088 3.66381 14.2748 4.48186 13.9614C2.23604 13.6002 0.977488 12.6138 0.977488 10.7614V9.78743H1.95147C2.16546 9.78743 2.35842 9.77006 2.53093 9.7382C0.845417 8.73042 0.00118992 7.11375 0.00118992 4.87139C0.00100575 4.77581 0.00100579 4.77581 0.000431037 4.67362C-0.00590093 3.54337 0.054808 2.93944 0.364218 2.16866C0.562516 1.67467 0.849147 1.21736 1.23491 0.798341L1.96989 0L2.68446 0.816652C5.03932 3.5079 7.36714 5.14063 9.74387 5.33812C9.75403 2.85478 11.6308 0.975464 14.127 0.975464C15.2906 0.975464 16.3461 1.41716 17.1757 2.21359C17.6297 2.30688 18.1118 2.38342 18.6221 2.44301ZM16.4687 4.05373L16.1701 3.98611L15.9639 3.75984C15.4653 3.21272 14.8395 2.92343 14.127 2.92343C12.702 2.92343 11.6918 3.93869 11.6918 5.35838C11.6918 5.59039 11.6858 5.73618 11.6569 5.92779C11.5416 6.69238 11.1127 7.30634 10.2308 7.30634C7.31077 7.30634 4.67643 5.74203 2.10759 3.07026C1.97516 3.47284 1.94402 3.88665 1.94836 4.66271C1.94895 4.7665 1.94895 4.7665 1.94915 4.87139C1.94915 6.86611 2.75728 7.9572 4.67069 8.56537L5.34964 8.78117V9.49359C5.34964 10.3575 4.53117 11.1707 3.33363 11.535C3.88259 11.9515 5.00529 12.1762 6.82166 12.1762H7.79564V13.1502C7.79564 14.5457 6.1922 15.6383 3.77004 16.2089C4.55997 16.4509 5.61174 16.5552 6.82132 16.5552C11.3157 16.5552 16.0751 13.43 16.0751 8.76731V6.33236C16.0751 6.04622 16.158 5.79785 16.2958 5.53961C16.3497 5.43864 16.409 5.34238 16.4822 5.23259C16.496 5.21192 16.5471 5.13703 16.5877 5.07716L16.6649 4.92278C16.79 4.67262 16.9151 4.42247 17.04 4.17231C16.8458 4.13552 16.6554 4.09599 16.4687 4.05373Z" fill="#00101B"/>
</svg>
